<svg xmlns="http://www.w3.org/2000/svg" viewBox="0 0 17.9 17.9"><path class="st0" d="M8.9 1.6c2.4 0 2.7 0 3.6.1.9 0 1.3.2 1.7.3.4.2.7.4 1 .7s.5.6.7 1c.1.3.3.8.3 1.6 0 .9.1 1.2.1 3.6s0 2.7-.1 3.6c0 .9-.2 1.3-.3 1.7-.2.4-.4.7-.7 1s-.6.5-1 .7c-.3.1-.8.3-1.7.3s-1.2.1-3.6.1-2.7 0-3.6-.1c-.9 0-1.3-.2-1.7-.3-.4-.2-.7-.4-1-.7s-.5-.6-.7-1c-.1-.3-.3-.8-.3-1.7s-.1-1.2-.1-3.6 0-2.7.1-3.6c.1-.8.2-1.3.4-1.6.2-.4.4-.7.7-1 .3-.4.5-.6 1-.7.3-.2.8-.3 1.6-.3 1-.1 1.3-.1 3.6-.1m0-1.6C6.5 0 6.2 0 5.3.1c-1 0-1.6.2-2.2.4S2 1 1.5 1.5s-.8 1-1 1.6C.2 3.7.1 4.3.1 5.3 0 6.2 0 6.5 0 8.9s0 2.7.1 3.7c0 1 .2 1.6.4 2.2.2.6.5 1.1 1 1.6s1 .8 1.6 1 1.2.4 2.2.4 1.3.1 3.7.1 2.7 0 3.7-.1c1 0 1.6-.2 2.2-.4.6-.2 1.1-.5 1.6-1s.8-1 1-1.6.4-1.2.4-2.2.1-1.3.1-3.7 0-2.7-.1-3.7c0-1-.2-1.6-.4-2.2-.2-.6-.5-1.1-1-1.6s-1-.8-1.6-1-1.2-.4-2.2-.4H8.9z"/><path class="st0" d="M8.9 4.3c-2.5 0-4.6 2.1-4.6 4.6s2.1 4.6 4.6 4.6 4.6-2.1 4.6-4.6-2-4.6-4.6-4.6zm0 7.6c-1.6 0-3-1.3-3-3 0-1.6 1.3-3 3-3 1.6 0 3 1.3 3 3s-1.3 3-3 3z"/><circle class="st0" cx="13.7" cy="4.2" r="1.1"/></svg>