<?xml version="1.0" encoding="utf-8"?>
<!-- Generator: Adobe Illustrator 21.0.2, SVG Export Plug-In . SVG Version: 6.00 Build 0)  -->
<svg version="1.1" id="Layer_1" xmlns="http://www.w3.org/2000/svg" xmlns:xlink="http://www.w3.org/1999/xlink" x="0px" y="0px"
	 viewBox="0 0 194.6 102.1" style="enable-background:new 0 0 194.6 102.1;" xml:space="preserve">
<style type="text/css">
	.st0{fill:url(#SVGID_1_);}
</style>
<linearGradient id="SVGID_1_" gradientUnits="userSpaceOnUse" x1="-1.898193e-02" y1="51.05" x2="194.619" y2="51.05">
	<stop  offset="0" style="stop-color:#A45025"/>
	<stop  offset="9.789180e-02" style="stop-color:#E5A451"/>
	<stop  offset="0.1413" style="stop-color:#E99E44"/>
	<stop  offset="0.1996" style="stop-color:#EC993C"/>
	<stop  offset="0.2897" style="stop-color:#ED9839"/>
	<stop  offset="0.3684" style="stop-color:#ED993B"/>
	<stop  offset="0.4049" style="stop-color:#EE9E43"/>
	<stop  offset="0.4326" style="stop-color:#EFA64F"/>
	<stop  offset="0.456" style="stop-color:#F1B162"/>
	<stop  offset="0.4763" style="stop-color:#F4BF79"/>
	<stop  offset="0.4937" style="stop-color:#F7CF94"/>
	<stop  offset="0.5247" style="stop-color:#F6CC90"/>
	<stop  offset="0.5558" style="stop-color:#F3C584"/>
	<stop  offset="0.5868" style="stop-color:#EDB870"/>
	<stop  offset="0.6178" style="stop-color:#E6A654"/>
	<stop  offset="0.6206" style="stop-color:#E5A451"/>
	<stop  offset="0.6264" style="stop-color:#E6A24D"/>
	<stop  offset="0.6545" style="stop-color:#EA9C42"/>
	<stop  offset="0.6938" style="stop-color:#EC993B"/>
	<stop  offset="0.8032" style="stop-color:#ED9839"/>
	<stop  offset="1" style="stop-color:#A55125"/>
</linearGradient>
<path class="st0" d="M97.8,1.5c-9.8,0-17.7,10-17.7,22.3c0,12.3,8,22.3,17.7,22.3c9.8,0,17.7-10,17.7-22.3
	C115.6,11.5,107.6,1.5,97.8,1.5z M97.8,44.9c-9,0-16.3-9.5-16.3-21.1S88.8,2.7,97.8,2.7s16.3,9.5,16.3,21.1S106.8,44.9,97.8,44.9z
	 M83.5,39.2c-1.1,1.4-3.6,2.4-6.2,2.4c-2.9,0-5.3-1.2-6.7-3.3c-2.5-3.8-0.6-7.4,0.2-8.7c-0.1,1.3,0.5,2,0.6,2c0,0,0.1,0,0.1,0
	c0,0,0.1-0.1,0.1-0.1c0.2-3,3.7-5.2,8.5-5.2c0.1,0,0.3,0,0.5,0c0.6,1.6,1.1,2.8,1.7,3.7c-0.3-1.3-0.6-2.7-0.7-4.1c0,0,0,0,0,0l0,0
	c0-0.3,0-0.6,0-0.9c-0.4,0-1.2,0-1.2,0c-1.8,0.1-3.5,0.2-4.6,0.5c-1.5,0.4-2.8,0.9-4,1.4c-0.8,0.4-1.7,0.7-2.7,1
	c-2.3,0.8-4.6,0.9-4.6,0.9c-0.1,0-0.1,0.1-0.1,0.1c0,0.1,0,0.1,0.1,0.1c0,0,1.2,0.4,2.7,0.4c0.5,0,1,0,1.5-0.1
	c-0.7,0.9-3.1,4.1-4.9,6c-2.4,2.5-6.3,5.8-11.3,5.8c0,0,0,0,0,0c-0.2,0-0.4,0-0.6,0c-2.2-0.1-3.4-0.8-3.4-1.8c0-1,1-2,1.8-2.1
	c1-0.1,2.5,0.3,2.8,1.1c0.2,0.4,0,0.9-0.6,1.5c0,0-0.1,0.1,0,0.1c0,0,0.1,0.1,0.1,0.1c0.1,0,1.6-0.2,2.2-1.5c0.1,0,0.4,0,0.8,0
	c1.3,0,3.7-0.3,5.1-2.2c0-0.1,0-0.1,0-0.2s-0.1,0-0.2,0c0,0-0.8,0.8-2.2,0.8c-0.6,0-1.2-0.1-1.8-0.3c0,0,0,0-0.1,0l-0.2,0
	c-0.5,0-0.9,0-1.4,0.2c0.2-0.3,0.4-0.7,0.2-1.3c0,0,0-0.1-0.1-0.1c0,0-0.1,0-0.1,0c0,0-0.7,0.8-2.4,0.8c-1.5,0-4.9,0.4-5.2,3.4
	c-0.5-0.1-2.1-0.5-4-0.6c-1.7-0.1-3.3,0.5-3.9,1.5c-0.3,0.5-0.3,1-0.1,1.6c0,0.1,0.1,0.1,0.2,0.1c0.1,0,0.1-0.1,0.1-0.1
	c0,0,0-0.3,0.1-0.4c0.1-0.1,0.3-0.2,0.6-0.2c0.6,0,0.8-0.3,1.1-0.7c0.2-0.3,0.4-0.6,0.8-0.7c0.2-0.1,0.6-0.1,1-0.1
	c0.7,0,3,0.1,5.1,1.6c0.8,0.6,2.1,0.9,3.8,0.9h0.4c3.1-0.1,6.5-1.1,8.8-2.8c2.9-2.1,4.9-4.6,6.7-6.8c0.2-0.3,0.5-0.6,0.7-0.9
	c-0.8,2.4-0.4,5.1,1.1,7.2c1.1,1.5,2.5,2.6,4.2,3.2c1.3,0.4,2.6,0.6,3.8,0.6c2.1,0,3.1-0.6,3.2-0.6c1-0.4,2-0.8,2.7-1.4
	c1-0.9,1.8-1.9,2.1-3.1c-0.4-0.6-0.8-1.2-1.1-1.8C84.6,37.3,84.2,38.4,83.5,39.2z M67.2,35.9c0-0.1,0-0.1-0.1-0.1
	c-0.1,0-0.1,0-0.1,0.1c0,0-1,3.5-3.2,4.3c-0.1,0-0.1,0.1-0.1,0.1c0,0.1,0.1,0.1,0.1,0.1h0c0.1,0,2-0.2,2.9-1
	c0.2,0.1,0.7,0.3,1.3,0.4h0c0,0,0.1,0,0.1-0.1c0,0,0-0.1,0-0.1C68.1,39.6,67.3,38.4,67.2,35.9z M79.7,29.7c-2,0-3.8,0.9-4.7,2.2
	c-1.2,1.9-2.6,2.7-2.6,2.7c0,0-0.1,0.1-0.1,0.1c0,0.1,0.1,0.1,0.1,0.1c0.8,0.1,1.3-0.1,1.7-0.4C74,35,73.8,35.5,74,36
	c0.1,0.7,0.6,1.3,1.3,1.8c0.7,0.5,1.5,0.7,2.4,0.7c0.9,0,1.6-0.2,2.3-0.5c0.4-0.1,0.8-0.3,1.1-0.3c1.2-0.1,1.3,0.7,1.3,0.7
	c0,0.1,0,0.1,0.1,0.1c0.1,0,0.1,0,0.1-0.1c0.3-0.4,0.3-0.8,0.2-1.2c-0.2-0.5-0.6-0.8-0.9-0.9c0.2-0.2,0.6-0.7,0.5-1.2
	c-0.1-0.3,0.5-1,1-1.4c0,0,0.1-0.1,0-0.1c0,0-0.1-0.1-0.1-0.1c-0.1,0-0.3,0-0.4,0c-1.5,0-2.3,1.1-2.6,1.5c-0.2-0.2-0.7-0.7-1.2-0.7
	c-0.1,0-0.2,0-0.3,0c-0.6,0.2-0.8,0.8-0.7,1.1c0,0,0,0.1,0.1,0.1c0,0,0.1,0,0.1,0c0,0,0.2-0.1,0.3-0.1c0.1,0,0.2,0,0.2,0.1
	c0.1,0.1,0.2,0.3,0.2,0.6c0,0.6-0.9,1-1.8,1c-0.6,0-1.2-0.2-1.4-0.5c-0.8-1-0.6-3.4,0.6-4.8c0.9-1,2.1-1.5,3.5-1.5
	c0.9,0,1.7,0.2,2.6,0.6c0.1,0.1,0.2,0.1,0.4,0.2c-0.1-0.4-0.2-0.8-0.3-1.2c0,0-0.1,0-0.1-0.1C81.4,29.9,80.6,29.7,79.7,29.7z
	 M156.2,40.5c-0.6-0.9-2-1.5-3.6-1.5c-0.1,0-0.2,0-0.3,0c-1.9,0.1-3.5,0.5-4,0.6c-0.2-3.1-3.7-3.4-5.2-3.4c-1.7,0-2.4-0.8-2.4-0.8
	c0,0-0.1-0.1-0.1,0c0,0-0.1,0-0.1,0.1c-0.1,0.6,0,1,0.2,1.3c-0.5-0.1-1-0.1-1.4-0.2l-0.2,0c0,0,0,0-0.1,0c-0.6,0.2-1.2,0.3-1.8,0.3
	c-1.4,0-2.2-0.8-2.2-0.8c0,0-0.1,0-0.2,0c-0.1,0-0.1,0.1,0,0.2c1.4,2,3.8,2.2,5.1,2.2c0.4,0,0.6,0,0.8,0c0.6,1.3,2.1,1.5,2.2,1.5
	c0,0,0.1,0,0.1-0.1c0-0.1,0-0.1,0-0.1c-0.6-0.5-0.8-1-0.6-1.5c0.3-0.8,1.8-1.2,2.8-1.1c0.8,0.1,1.9,1.1,1.8,2.1
	c0,1.1-1.2,1.7-3.4,1.8c-0.2,0-0.4,0-0.6,0c-5,0-8.8-3.3-11.3-5.8c-1.8-1.9-4.2-5-4.9-6c0.5,0.1,1,0.1,1.5,0.1
	c1.5,0,2.7-0.4,2.7-0.4c0.1,0,0.1-0.1,0.1-0.1c0-0.1-0.1-0.1-0.1-0.1c0,0-2.3-0.2-4.6-0.9c-1-0.3-1.8-0.7-2.7-1
	c-1.2-0.5-2.5-1-4-1.4c-1-0.3-2.7-0.4-4.6-0.5c0,0-0.8,0-1.2,0c0,0.3,0,0.5,0,0.8l0,0.1c0,0,0,0,0,0l0,0.1c0,0,0,0.1,0,0.1
	c-0.2,1.8-0.5,3.5-1,5.1c0.1-0.1,0.3-0.2,0.4-0.2c0.9-0.4,1.7-0.6,2.6-0.6c1.3,0,2.6,0.5,3.5,1.5c1.2,1.4,1.3,3.8,0.6,4.8
	c-0.3,0.3-0.8,0.5-1.4,0.5c-0.9,0-1.8-0.4-1.8-1c0-0.3,0.1-0.5,0.2-0.6c0.1-0.1,0.1-0.1,0.2-0.1c0.2,0,0.3,0.1,0.3,0.1
	c0,0,0.1,0,0.1,0c0,0,0.1-0.1,0.1-0.1c0-0.3-0.1-0.9-0.7-1.1c-0.1,0-0.2,0-0.3,0c-0.5,0-1,0.4-1.2,0.7c-0.3-0.4-1.1-1.5-2.6-1.5
	c-0.1,0-0.3,0-0.4,0c-0.1,0-0.1,0-0.1,0.1c0,0,0,0.1,0,0.1c0.4,0.3,1,1,1,1.4c-0.1,0.5,0.3,0.9,0.5,1.2c-0.3,0.1-0.7,0.4-0.9,0.9
	c-0.1,0.4,0,0.8,0.2,1.2c0,0,0.1,0.1,0.1,0.1c0.1,0,0.1-0.1,0.1-0.1c0,0,0.1-0.8,1.3-0.7c0.3,0,0.7,0.2,1.1,0.3
	c0.7,0.2,1.4,0.5,2.3,0.5c0.8,0,1.6-0.2,2.4-0.7c0.7-0.5,1.2-1.1,1.3-1.8c0.1-0.5,0-1.1-0.2-1.4c0.4,0.2,0.9,0.4,1.7,0.4
	c0.1,0,0.1,0,0.1-0.1c0-0.1,0-0.1-0.1-0.1c0,0-1.4-0.9-2.6-2.7c-0.9-1.4-2.7-2.2-4.7-2.2c-0.9,0-1.7,0.2-2.5,0.5c0,0-0.1,0-0.1,0.1
	c0.6-1,1.2-2.2,1.7-3.8c0.2,0,0.3,0,0.5,0c4.8,0,8.3,2.2,8.5,5.2c0,0.1,0,0.1,0.1,0.1c0,0,0.1,0,0.1,0c0,0,0.7-0.7,0.6-2
	c0.8,1.2,2.7,4.8,0.2,8.7c-1.3,2.1-3.8,3.3-6.7,3.3c-2.6,0-5.1-1-6.2-2.4c-0.7-0.9-1.1-2-1.1-3.2c-0.4,0.6-0.7,1.2-1.1,1.8
	c0.4,1.2,1.1,2.3,2.1,3.1c0.7,0.6,1.6,1.1,2.6,1.4c0,0,1.1,0.6,3.2,0.6c1.2,0,2.5-0.2,3.8-0.6c1.7-0.6,3.2-1.7,4.2-3.2
	c1.5-2.1,1.9-4.8,1.1-7.2c0.2,0.3,0.5,0.6,0.7,0.9c1.7,2.2,3.7,4.6,6.7,6.8c2.3,1.7,5.7,2.7,8.8,2.8h0.4c1.7,0,3-0.3,3.8-0.9
	c2.1-1.5,4.4-1.6,5.1-1.6c0.4,0,0.7,0,1,0.1c0.4,0.1,0.7,0.4,0.8,0.7c0.2,0.4,0.5,0.7,1.1,0.7c0.3,0,0.5,0,0.6,0.2
	c0.1,0.2,0.1,0.4,0.1,0.4c0,0.1,0,0.1,0.1,0.1c0.1,0,0.1,0,0.2-0.1C156.6,41.6,156.5,41,156.2,40.5z M131.9,40.2
	c-2.1-0.8-3.1-4.3-3.2-4.3c0-0.1-0.1-0.1-0.1-0.1c-0.1,0-0.1,0.1-0.1,0.1c-0.1,2.5-0.9,3.7-0.9,3.7c0,0,0,0.1,0,0.1
	c0,0,0.1,0.1,0.1,0.1c0,0,0,0,0,0c0.6,0,1.1-0.2,1.3-0.4c0.9,0.8,2.8,1,2.9,1h0c0.1,0,0.1,0,0.1-0.1C132,40.3,132,40.2,131.9,40.2z
	 M184.8,94.9c1-2.6,3.1-4.7,5.8-5.8l0.3-0.1V59.7l-0.3-0.1c-2.6-1-4.7-3.1-5.8-5.8l-0.1-0.3h-58.5l0.6,0.9H184
	c0.8,2.8,3.2,4.8,5.9,5.9v28.1c-2.6,1.1-4.8,3.2-5.9,5.9h-30.1l0.6,0.9h30.1L184.8,94.9z M6.7,50.2c0,3.4-2.8,6.3-6.3,6.3H0v35.8
	h0.5c3.4,0,6.3,2.8,6.3,6.3V99H39l0.7-0.9h-32c-0.2-3.6-3.1-6.5-6.7-6.7V57.4c3.6-0.2,6.5-3.1,6.7-6.7h64.1l0.6-0.9H6.7V50.2z
	 M9.8,53.8c-1,2.6-3.1,4.7-5.8,5.8l-0.3,0.1v29.3l0.3,0.1c2.6,1,4.7,3.1,5.8,5.8l0.1,0.3h31.7l0.7-0.9H10.6
	c-1.1-2.6-3.2-4.8-5.9-5.9V60.4c2.6-1.1,4.8-3.2,5.9-5.9h58.7l0.6-0.9h-60L9.8,53.8z M194.1,56.5c-3.4,0-6.3-2.8-6.3-6.3v-0.5h-64.2
	l0.6,0.9H187c0.2,3.6,3.1,6.5,6.7,6.7v33.9c-3.6,0.2-6.5,3.1-6.7,6.7h-30.5L157,99h30.8v-0.5c0-3.4,2.8-6.3,6.3-6.3h0.5V56.5H194.1z
	 M50.5,100.6c-0.8,0-1.6-0.2-2.3-0.5l-0.3,0.3l-1-2.5l0.1-0.1c0.9,1.3,1.9,1.9,3.3,1.9c0.6,0,2.2-0.2,2.2-1.3c0-0.7-0.8-0.9-1.2-1
	c-0.8-0.1-1.6-0.1-2.4-0.1c-0.7,0-1.8-0.6-1.8-1.7c0-1.6,1.6-1.8,2.6-1.8c0.3,0,1.9,0.2,2.2,0.4l0.3-0.3l0.8,2.4l-0.1,0
	c-0.7-1.3-2.2-1.8-3.3-1.8c-0.5,0-1.6,0.1-1.6,1c0,0.8,1,0.9,1.4,0.9c0.8,0.1,1.5,0.1,2.3,0.2c0.7,0.1,1.7,0.7,1.7,1.7
	C53.2,100.1,51.6,100.6,50.5,100.6 M57.1,100.5c0,0,0-0.1,0-0.1c0.4,0,0.8-0.5,0.8-1.1l0-4c0-0.5-0.3-1.1-0.8-1.1c0,0,0-0.1,0-0.1
	l2.2,0c0-0.1,0,0.1,0,0.2c-0.4,0-0.8,0.5-0.8,1.1v3.9c0,0.5,0.3,1.1,0.8,1.1v0.1H57.1z M68.9,94.8c0,1.6,0,3.3,0,4.9
	c0,0.2,0.5,0.6,0.7,0.6v0.2h-1.1l-3.9-5.3v0.5v3.5c0,0.7,0.2,1,0.8,1.1c0,0.1,0,0.2,0,0.2l-2.1,0c0,0,0-0.1,0-0.1c0,0,0,0,0-0.1
	c0.5,0,0.8-0.4,0.8-1v-3.5c0-0.9-0.1-1.4-0.9-1.5c0,0,0-0.1,0-0.1c0,0,0,0,0-0.1h1.6l3.7,4.9v-0.6v-1.3c0-0.8,0-1.5,0-2.3
	c0-0.5-0.3-0.6-0.6-0.6c0,0-0.1,0-0.1,0c0,0,0-0.1,0-0.2h2v0.2C69.4,94.2,68.9,94.3,68.9,94.8 M78,100.4c-0.5,0.2-1,0.3-1.5,0.3
	c-1.5,0-3.1-1.1-3.1-3.3c0-2.2,1.8-3.4,3.3-3.4c0.3,0,0.6,0,0.9,0.1c0.3,0.1,0.5,0.2,0.7,0.3c0,0,0.1,0.1,0.1,0.1
	c0,0,0.4-0.3,0.4-0.4c0.4,0.7,0.8,1.5,1.1,2.2c0,0-0.1,0.1-0.1,0.1c0,0-1.7-1.7-2.9-1.7c-1.3,0-2.8,0.4-2.8,2.7
	c0,1.7,1.3,2.4,2.5,2.4c0.7,0,1.5-0.2,2-0.9c0.2-0.2,0.4-0.6,0.5-0.9h-2.3c-0.4,0-0.8,0.5-1.2,0.8c0,0-0.1,0-0.1-0.1
	c0-0.1,0.7-1.2,0.9-1.4h1.3h1.6h0.7C80,98.7,79,100,78,100.4 M89.6,100.6c-0.1,0-0.4-0.4-0.4-0.4c0,0-0.4,0.1-0.5,0.2
	c-0.3,0.1-0.9,0.2-0.9,0.2l-3.8,0v-0.2h0.1c0.5,0,0.9-0.8,0.9-1.3l0-3.8c0-0.6-0.5-0.9-0.9-1l0-0.1h2.6l0,0.2
	c-0.4,0-0.9,0.3-0.9,0.9l0,4.6c0,0,0.1,0,0.1,0h1.6c0.6,0,1.2-0.2,1.7-0.5c0.4-0.2,0.7-0.6,1.1-1c0,0,0.2-0.3,0.2-0.3
	s0.1,0.1,0.1,0.1L89.6,100.6z M100.2,100.4c-0.1-0.1-0.2-0.3-0.4-0.4c-0.4,0.2-0.9,0.4-1.3,0.4h-4.3v-0.2c0.7-0.2,1-0.2,1-1.4l0-3.3
	c0-0.8-0.4-1.3-1-1.4v-0.2h4.4c0.3,0,0.5,0.1,0.8,0.2c0.1,0,0.3,0.1,0.3,0.1c0,0,0.3-0.2,0.3-0.3c0.4,0.7,0.7,1.5,1,2.2l-0.1,0.1
	c-0.6-0.9-1.5-1.5-2.5-1.5h-2.6v1.9h2.4c0.4,0,0.5-0.4,0.7-0.8l1,1.9l0,0.1c-0.3-0.1-0.8-0.4-1.1-0.4h-3l0,2.3c0.8,0,1.7,0,2.5,0
	c1,0,2.1-0.7,2.7-1.8l0.1,0.1L100.2,100.4z M117.8,100.5h-2.2c0,0,0,0,0-0.1c0,0,0-0.1,0-0.1c0.4,0,0.8-0.5,0.8-1.1v-3.4
	c-0.3,0.6-1.5,3.6-1.8,4.3c0,0.1,0,0.1,0,0.2h-1.4c0.1-0.1,0.1-0.3,0-0.3c0,0-0.2-0.7-0.4-1.1c-0.5-1.1-0.9-2.2-1.3-3.3v3.3
	c0,0.5,0.3,1.1,0.8,1.1c0,0,0,0.1,0,0.1c0,0,0,0,0,0.1h-2.2c0,0,0,0,0-0.1c0,0,0-0.1,0-0.1c0.4,0,0.8-0.5,0.8-1.1v-4
	c0-0.6-0.3-1-0.8-1v-0.2c0.8,0,1.6,0,2.4,0c0,0,0,0.2,0,0.2c-0.2,0-0.6,0-0.6,0.4c0,0.4,1.8,4.5,2.1,5.1c0.3-0.6,2.1-4.8,2.1-5.1
	c0-0.3-0.4-0.4-0.6-0.4c0-0.1,0-0.2,0-0.2c0.8,0,1.6,0,2.4,0c0,0.1,0,0.1,0,0.2c-0.5,0.2-0.8,0.3-0.8,1.1l0,3.9
	c0,0.5,0.3,1.1,0.8,1.1C117.8,100.4,117.8,100.4,117.8,100.5C117.8,100.5,117.8,100.5,117.8,100.5 M129.1,100.5h-2.3
	c0,0,0-0.1,0-0.2c0.2-0.1,0.6,0,0.6-0.4c0-0.3-0.5-1.4-0.5-1.4s-2.1,0-3.1,0h0c0,0.1-0.6,1.2-0.6,1.4c0,0.3,0.5,0.5,0.7,0.4v0.2
	l-2.5,0v-0.2c0.4-0.1,0.6,0.1,0.9-0.6c0.3-0.5,2.1-4.6,2.1-4.9c0-0.5-0.3-0.5-0.6-0.6v-0.2h3v0.1c-0.2,0.1-0.6,0.1-0.6,0.5
	c0,0.2,0.1,0.5,0.2,0.8c0.4,1,0.9,2.1,1.3,3.1c0.2,0.6,0.5,1.3,1,1.6c0.2,0.1,0.3,0.1,0.5,0.2c0,0,0,0,0,0
	C129.1,100.3,129.1,100.4,129.1,100.5 M125.3,94.8c-0.4,1-0.9,2-1.3,3l2.5,0L125.3,94.8z M138.4,100.6c-0.1,0-0.4-0.4-0.4-0.4
	c0,0-0.4,0.1-0.5,0.2c-0.3,0.1-0.9,0.2-0.9,0.2l-3.8,0v-0.2h0.1c0.5,0,0.9-0.8,0.9-1.3l0-3.8c0-0.6-0.5-0.9-0.9-1l0-0.1h2.6l0,0.2
	c-0.4,0-0.9,0.3-0.9,0.9l0,4.6c0,0,0.1,0,0.1,0h1.6c0.6,0,1.2-0.2,1.7-0.5c0.4-0.2,0.7-0.6,1.1-1c0,0,0.2-0.3,0.2-0.3
	s0.1,0.1,0.1,0.1L138.4,100.6z M147.6,96.6c-0.8-0.9-1.8-1.9-3-1.9l0,4.9c0,0.5,0.3,0.6,0.6,0.7v0.2l-1.6,0c-0.1,0-0.2,0-0.4,0v-0.2
	c0.3,0,0.6-0.2,0.6-0.7l0-4.9c-1.1,0-2.1,1-3,1.9c0,0-0.2-0.1-0.2-0.2l1-2.3l0.4,0.3c0.6-0.3,1.3-0.5,1.9-0.5c0.7,0,1.4,0.2,2.1,0.5
	l0.4-0.3l1,2.3C147.7,96.5,147.6,96.6,147.6,96.6 M86.2,52c-1-0.8-2.2-1.7-3.5-1.7l0,4.4c0,0.4,0.3,0.6,0.7,0.6v0.2l-2,0
	c-0.2,0-0.3,0-0.4,0v-0.2c0.4,0,0.7-0.2,0.7-0.6l0-4.4c-1.4,0-2.6,0.9-3.5,1.7c-0.1,0-0.2-0.1-0.2-0.2l1.2-2.1l0.5,0.3
	c0.7-0.3,1.5-0.5,2.3-0.5c0.8,0,1.7,0.2,2.5,0.5l0.5-0.3l1.2,2.1C86.4,51.9,86.3,51.9,86.2,52 M102,55.5l-2.7,0c0,0,0-0.1,0-0.1
	c0.5,0,0.9-0.5,0.9-1v-1.5l-4.9,0v1.5c0,0.5,0.4,1,0.9,1c0,0,0,0.1,0,0.1l-2.7,0c0,0,0,0,0-0.1c0,0,0-0.1,0-0.1c0.5,0,0.9-0.5,0.9-1
	l0-3.5c0-0.5-0.4-1-0.9-1c0,0,0-0.1,0-0.1l2.7,0c0,0,0,0.1,0,0.1c-0.5,0-0.9,0.5-0.9,1l0,1.4l4.9,0v-1.4c0-0.5-0.4-1-0.9-1
	c0,0,0-0.1,0-0.1l2.7,0c0,0,0,0,0,0.1c0,0,0,0.1,0,0.1c-0.5,0-0.9,0.5-0.9,1l0,3.5c0,0.5,0.4,1,0.9,1C102,55.4,102,55.4,102,55.5
	C102,55.5,102,55.5,102,55.5 M116.8,55.4c-0.2-0.1-0.3-0.2-0.4-0.3c-0.5,0.2-1,0.4-1.6,0.4l-5.2,0v-0.2c0.9-0.1,1.2-0.2,1.2-1.3
	l0-2.9c0-0.7-0.5-1.1-1.2-1.2v-0.2l5.2,0c0.3,0,0.6,0.1,0.9,0.1c0.1,0,0.3,0.1,0.4,0.1c0.1,0,0.3-0.2,0.4-0.2
	c0.5,0.6,0.8,1.3,1.2,1.9l-0.1,0.1c-0.7-0.8-1.8-1.4-3-1.4l-3.1,0l0,1.7l2.9,0c0.5,0,0.6-0.4,0.8-0.7l1.1,1.7l0,0.1
	c-0.4-0.1-0.9-0.4-1.3-0.4l-3.5,0l0,2c1,0,2,0,3,0c1.2,0,2.5-0.7,3.2-1.6l0.1,0.1L116.8,55.4z M39.3,76.3c0.8,0.8,1.1,1.8,1.1,2.8
	c0,0.5-0.1,1.1-0.3,2c-0.1,0.7-0.5,1.5-1.1,2.2c-1.4,1.7-3.5,2.6-6.6,2.6c-1.8,0-3.2-0.2-4.4-0.7c-0.5-0.2-1-0.5-1.5-0.7
	c-0.4-0.2-0.7-0.4-1-0.7l-0.1-0.1c-0.6-0.5-0.8-0.9-1-1.1c0,0,0,0,0,0l2.5-1.7c0.2,0.4,0.5,0.7,0.8,1.1c0.4,0.4,0.9,0.7,1.4,1
	c1,0.6,2,0.9,3,0.9c1.1,0,2.1-0.2,2.9-0.6l0.2-0.1c0.9-0.6,1.4-1.6,1.6-2.7c0.1-0.8,0-2-1.5-3.2c-0.5-0.4-1.2-0.8-1.9-1.1
	c-0.7-0.3-1.5-0.6-2.5-1c-2.1-0.7-3.8-1.6-4.9-2.4c-1.5-1.2-2.2-2.4-2.2-3.9c0.1-1.6,0.8-2.9,2.3-3.9c1.5-1.1,3.6-1.6,6.3-1.6
	c2.1,0,3.7,0.5,5,1.4c0.3,0.2,0.5,0.4,0.7,0.6c0.2,0.2,0.4,0.5,0.7,0.8c0.1,0.2,0.2,0.4,0.3,0.5l-2.2,1.3l-0.1-0.1
	c0,0-0.1-0.1-0.2-0.2c-0.2-0.3-0.5-0.5-0.9-0.8c-0.4-0.3-0.8-0.5-1.2-0.8c-0.5-0.3-1.1-0.4-1.7-0.5l-0.4-0.1c-0.2,0-0.4,0-0.6,0
	c-1,0-1.9,0.2-2.8,0.6l-0.2,0.1c-0.3,0.2-0.6,0.4-0.9,0.7c-0.4,0.4-0.6,0.9-0.7,1.4c-0.1,0.6,0,1.1,0.2,1.5c0.2,0.5,0.6,0.9,1.2,1.3
	c0.5,0.3,1.1,0.6,2,1c0.8,0.3,1.7,0.7,2.9,1.1c1.4,0.6,2.7,1.1,3.6,1.7C38,75.1,38.8,75.7,39.3,76.3 M64.7,83.6h-9.4v-8.4h7.4v-1.9
	h-7.4v-8h9.4v-1.9H52.6v22.1h12.1V83.6z M91,63.3h-2.4L84.3,72l-4.4-8.6h-2.5l5,10.2l-6.1,12h2.4l4.2-8.1l1.7-2.1l1.1,2.4l4.1,7.8
	h2.3l-6.1-12L91,63.3z M108.1,85.5h2.7V65.2h6.4v-1.9h-15.4v1.9h6.4L108.1,85.5z M142.2,64.9c0.9,0.9,1.4,2.4,1.4,4.5v10
	c0,2.1-0.5,3.7-1.4,4.6c-0.6,0.6-1.5,1.1-2.5,1.4c-1.1,0.3-2.5,0.5-4.2,0.5c-1.7,0-3.2-0.2-4.3-0.5c-1-0.3-1.9-0.8-2.4-1.3
	c-0.5-0.5-0.8-1.1-1.1-1.8c-0.3-0.7-0.4-1.7-0.4-2.8v-10c0-1.1,0.1-2,0.4-2.8c0.3-0.7,0.6-1.3,1-1.8c0.6-0.6,1.5-1,2.5-1.3
	c1.1-0.3,2.6-0.5,4.3-0.5C138.7,63,140.9,63.6,142.2,64.9 M140.9,70.7c0-1.1-0.2-1.9-0.5-2.6c-0.3-0.7-0.8-1.3-1.3-1.8
	c-0.5-0.4-1.1-0.7-1.7-0.8c-0.6-0.1-1.1-0.2-1.7-0.2h-0.5c-1.7,0-3.1,0.5-4,1.5l-0.1,0.1c-0.7,0.9-1.1,2.2-1.1,3.8v7.5
	c0,1,0.2,1.9,0.5,2.6c0.3,0.7,0.7,1.3,1.2,1.7c0.5,0.4,1.1,0.8,1.8,0.9c0.6,0.1,1.1,0.2,1.6,0.2h0.5c1.8,0,3.2-0.5,4.1-1.7
	c0.7-0.9,1.1-2.2,1.1-3.8V70.7z M167.3,80.6L159,63.3h-3.2v22.1h2.7V68.2l8.6,17.3h3V63.3h-2.7V80.6z M65.8,60.7h-15
	c-0.6,0-1.2,0.3-1.4,0.9c-0.2,0.4-0.2,0.8-0.1,1.1c0.1,0.3,0.3,0.5,0.5,0.6l0.2,0.2v21.7l-0.2,0.2c-0.6,0.4-0.8,1.2-0.4,1.8
	c0.3,0.5,0.8,0.9,1.4,0.9h15c0.9,0,1.6-0.6,1.6-1.5v-4.7c0-0.6-0.3-1.1-0.9-1.4c-0.4-0.2-0.8-0.2-1.2-0.1c-0.3,0.1-0.5,0.3-0.7,0.5
	L64.4,81h-6.5v-3.2h4.5l0.4,0.3l0.2,0.1c0.4,0.2,0.8,0.2,1.2,0.1c0.7-0.2,1.1-0.7,1.1-1.4v-5.4c0-0.6-0.4-1.2-0.9-1.4v0l0,0
	c-0.1,0-0.2,0-0.3-0.1c-0.3,0-0.5,0-0.8,0l-0.3,0.1l-0.5,0.5h-4.5v-2.8h6.5l0.2,0.2c0.5,0.6,1.3,0.7,2,0.3c0.5-0.3,0.7-0.8,0.7-1.4
	v-4.7C67.3,61.5,66.8,60.7,65.8,60.7z M66.2,68l-1.4-1.3h-8v5h6l1.4-1.4v7.5l-1.4-1.2h-6v5.4h8l1.4-1.2V87H49.7l1.3-1.3V63.1
	l-1.2-1.3h16.4V68z M138.2,67.5c-0.4-0.3-0.8-0.5-1.2-0.6c-0.4-0.1-0.9-0.2-1.3-0.2h-0.5c-1.3,0-2.3,0.3-2.9,1
	c-0.5,0.6-0.7,1.6-0.7,2.9v7.5c0,0.8,0.1,1.5,0.3,2c0.2,0.5,0.5,0.9,0.8,1.2c0.3,0.3,0.7,0.5,1.2,0.6s0.9,0.2,1.3,0.2h0.5
	c1.4,0,2.4-0.4,2.9-1.1c0.5-0.7,0.8-1.6,0.8-2.9v-7.5c0-0.8-0.1-1.5-0.3-2C138.8,68.1,138.5,67.7,138.2,67.5z M138.3,78.1
	c0,1-0.2,1.7-0.5,2.2c-0.4,0.5-1.4,0.6-2.1,0.6h-0.5c-0.3,0-0.7,0-1-0.1c-0.3-0.1-0.5-0.2-0.7-0.4c-0.2-0.2-0.4-0.5-0.6-0.8
	c-0.2-0.4-0.2-0.9-0.2-1.5v-7.5c0-1,0.2-1.8,0.5-2.2c0.4-0.4,1.1-0.7,2.1-0.7h0.5c0.4,0,0.7,0,1,0.1c0.3,0.1,0.5,0.2,0.8,0.4
	c0.2,0.2,0.4,0.4,0.5,0.7c0.2,0.4,0.2,0.9,0.2,1.6V78.1z M172.8,85.4l-0.2-0.2V63.6l0.2-0.3c0.5-0.5,0.7-1.2,0.3-1.8
	c-0.3-0.5-0.8-0.8-1.4-0.8h-6.3c-0.7,0-1.2,0.3-1.4,0.9c-0.2,0.6-0.1,1.2,0.3,1.6l0.3,0.3v5.6l-3.6-7.5l-0.3-0.4
	c-0.4-0.3-0.8-0.5-1.2-0.5H154c-0.6,0-1.2,0.3-1.4,0.9c-0.2,0.4-0.2,0.8-0.1,1.1c0.1,0.3,0.3,0.5,0.5,0.6l0.2,0.2v21.7l-0.2,0.2
	c-0.6,0.4-0.8,1.1-0.5,1.8l0,0h0c0,0,0,0,0,0c0.3,0.5,0.8,0.9,1.4,0.9h6.2c0.7,0,1.2-0.4,1.4-1h0.1l-0.1-0.1c0,0,0,0,0,0
	c0.2-0.6,0.1-1.2-0.4-1.6l-0.3-0.3v-5.9l3.2,6.4c-0.3,0.4-0.4,0.9-0.2,1.4c0.2,0.6,0.8,1,1.4,1h6.3c0.6,0,1.2-0.4,1.4-0.9
	C173.5,86.5,173.3,85.8,172.8,85.4z M164.4,87l1.1-1.1L160,74.7v11l1.5,1.3l-8.5,0.1l1.4-1.4V63.1l-1.2-1.3l6.6,0L160,62l5.7,11.9
	V63.1l-1.2-1.3l8.3-0.1l-1.3,1.4v22.5l1.4,1.3H164.4z M135.5,60.4c-2,0-3.6,0.2-5,0.6c-1.4,0.4-2.6,1.1-3.6,2
	c-0.7,0.7-1.3,1.7-1.6,2.7c-0.4,1-0.6,2.3-0.6,3.7v10c0,1.5,0.2,2.7,0.6,3.7c0.4,1,0.9,2,1.7,2.7c0.9,0.9,2.1,1.5,3.5,2
	c1.3,0.4,3,0.6,5,0.6c1.9,0,3.6-0.2,5-0.6c1.4-0.4,2.6-1.1,3.6-2c1.5-1.4,2.2-3.6,2.2-6.5v-10c0-2.8-0.7-5-2.2-6.4
	C142.3,61.3,139.4,60.4,135.5,60.4z M145.1,79.4c0,2.6-0.6,4.5-1.9,5.7c-0.8,0.8-1.9,1.3-3.1,1.7c-1.3,0.4-2.8,0.6-4.6,0.6
	c-1.9,0-3.5-0.2-4.7-0.6c-1.2-0.4-2.3-1-3.1-1.7c-0.6-0.7-1.1-1.4-1.4-2.3c-0.3-0.9-0.5-2-0.5-3.4v-10c0-1.3,0.2-2.4,0.5-3.3
	c0.3-0.9,0.8-1.7,1.4-2.3c0.8-0.8,1.9-1.4,3.2-1.7c1.3-0.4,2.8-0.5,4.7-0.5c3.6,0,6.2,0.8,7.8,2.3c1.2,1.2,1.9,3.1,1.9,5.6V79.4z
	 M118.2,60.7h-17.5c-1.1,0-1.6,0.7-1.6,1.5v4.7c0,0.6,0.4,1.2,0.9,1.4v0l0,0c0,0,0,0,0.1,0c0.6,0.3,1.3,0.1,1.7-0.4l0.2-0.2h3.4
	l0,17.4l-0.2,0.2c-0.5,0.4-0.6,1-0.4,1.6c0.2,0.6,0.8,1,1.5,1h6.3c0.6,0,1.2-0.4,1.5-1c0.3-0.7,0.1-1.4-0.5-1.7l-0.2-0.2V67.8h3.5
	l0.3,0.3c0.4,0.4,1,0.5,1.6,0.3c0.6-0.2,1-0.8,1-1.4v-4.7C119.9,61.5,119.3,60.7,118.2,60.7z M118.8,67.9l-1.5-1.2h-5v18.9l1.3,1.3
	h-8.4l1.3-1.3l0-18.9h-4.9l-1.4,1.3v-6.2l18.5,0V67.9z M94.8,85l-5.9-11.5l4.7-9.7l0.6-0.6c0.4-0.5,0.5-1,0.2-1.6l0,0h0
	c0-0.1-0.1-0.1-0.1-0.2c-0.3-0.5-0.8-0.7-1.4-0.7h-6.3c-0.7,0-1.2,0.3-1.4,0.9c-0.2,0.6-0.1,1.2,0.3,1.6l0,0l-1.4,2.9l-1.5-2.9
	c0.2-0.2,0.4-0.5,0.5-0.8c0-0.2,0.1-0.7-0.3-1.2c-0.3-0.4-0.8-0.6-1.3-0.6h-6.2c-0.6,0-1.1,0.3-1.4,0.8c-0.3,0.6-0.2,1.3,0.2,1.7
	l0.5,0.5l4.7,9.7L73.6,85l-0.4,0.5c-0.5,0.4-0.7,1.1-0.4,1.8c0.3,0.5,0.8,0.9,1.4,0.9h6.2c0.6,0,1.2-0.4,1.4-0.9H82L81.9,87
	c0,0,0,0,0,0c0.2-0.6,0.1-1.1-0.3-1.5l2.6-5.1l2.7,5.1c-0.4,0.4-0.6,1-0.4,1.6l-0.1,0.1c0,0,0,0.1,0,0.1l0.1,0c0,0,0,0,0,0
	c0.3,0.5,0.8,0.9,1.4,0.9h6.3c0.6,0,1.2-0.4,1.4-1c0.2-0.6,0-1.2-0.4-1.6L94.8,85z M86.7,87l1.6-1.3l-4-7.7l-0.2,0.2l-3.8,7.4
	l1.4,1.2h-8.4l1.3-1.3l6.3-12.2l-5-10.3l-1.2-1.4l8.2,0l-1.2,1.2l2.8,5.5l2.8-5.5l-1.3-1.2l8.4-0.1l-1.4,1.3l-5.1,10.4l6.2,12
	l1.4,1.4L86.7,87z M41.2,74.6c-0.7-0.8-1.6-1.6-2.8-2.2c-0.7-0.4-1.6-0.8-2.5-1.3l-1.3-0.5c-0.1,0-0.1,0-0.2-0.1
	c-1.1-0.4-2.1-0.8-2.9-1.1c-0.9-0.4-1.3-0.6-1.5-0.7c-0.2-0.1-0.3-0.2-0.3-0.2c0.1-0.1,0.2-0.2,0.3-0.3c0.5-0.2,1.1-0.3,1.7-0.3
	c0.1,0,0.1,0,0.2,0l0.4,0.1c0.4,0,0.7,0.1,1,0.3c0.3,0.2,0.6,0.3,0.8,0.5c0.2,0.2,0.8,0.6,0.8,0.6l0,0c0,0,0,0,0,0l0,0.2
	c0,0,0,0,0,0c0,0.4,0.2,0.8,0.5,1c0.7,0.5,1.7,0.2,2.3-0.2l3.5-2.1c0.6-0.3,0.8-0.8,0.9-1.1c0-0.3,0-0.7-0.3-1
	c-0.1-0.2-0.3-0.5-0.4-0.7c-0.2-0.3-0.4-0.6-0.6-1c-0.3-0.4-0.6-0.7-0.8-1c-0.3-0.3-0.6-0.6-1-0.9c-1.7-1.3-4-1.9-6.6-1.9
	c-3.2,0-5.8,0.7-7.8,2.1c-2.2,1.5-3.3,3.5-3.4,6c0,2.3,1,4.3,3.2,6c1.4,1,3.3,2,5.6,2.8c0.9,0.3,1.7,0.6,2.3,0.9
	c0.5,0.2,1,0.5,1.3,0.8c0.1,0.1,0.6,0.5,0.5,0.8c-0.1,0.4-0.2,0.7-0.4,0.9c-0.4,0.2-1,0.3-1.6,0.3c-0.5,0-1.1-0.2-1.7-0.5
	c-0.3-0.2-0.6-0.3-0.8-0.5c-0.1-0.1-0.2-0.3-0.3-0.4l0.1-0.7l0-0.1c0-0.9-0.6-1.4-1.1-1.5c-0.4-0.1-0.8,0-1.3,0.2l-4.8,3.4
	c-0.6,0.4-0.8,1-0.6,1.7c0.1,0.3,0.3,0.7,0.6,1.2c0.3,0.6,0.8,1.2,1.4,1.7c0.5,0.5,1,0.9,1.6,1.2c0.5,0.3,1.1,0.6,1.8,0.8
	c1.5,0.6,3.3,0.9,5.4,0.9c3.9,0,6.8-1.2,8.6-3.6c0.8-1.1,1.3-2.1,1.6-3.2c0.2-1,0.3-1.8,0.4-2.4C43,77.5,42.5,75.9,41.2,74.6z
	 M41.6,81.4c-0.2,0.9-0.7,1.9-1.3,2.8c-1.7,2.1-4.3,3.2-7.8,3.2c-2,0-3.6-0.3-5-0.8c-0.6-0.2-1.1-0.5-1.6-0.8
	c-0.5-0.3-1-0.6-1.4-1.1c-0.6-0.5-1-1-1.2-1.5c-0.2-0.4-0.3-0.7-0.4-0.8L22.7,82l5.9-4.2l-0.3,2c0.2,0.3,0.4,0.6,0.7,0.9
	s0.6,0.5,1,0.7c0.8,0.4,1.5,0.7,2.2,0.7c0.9,0,1.7-0.2,2.3-0.5c0.5-0.4,0.8-0.9,0.9-1.6c0.1-0.6-0.2-1.2-1-1.8
	c-0.4-0.3-1-0.7-1.6-0.9c-0.6-0.3-1.4-0.6-2.4-1c-2.3-0.8-4.1-1.7-5.4-2.7c-1.9-1.5-2.8-3.2-2.8-5.1c0.1-2.1,1-3.8,2.9-5.1
	c1.8-1.2,4.2-1.9,7.1-1.9c2.4,0,4.4,0.6,5.9,1.7c0.3,0.3,0.6,0.5,0.9,0.8c0.2,0.3,0.5,0.6,0.8,0.9c0.3,0.4,0.4,0.7,0.6,1
	c0.1,0.2,0.2,0.4,0.3,0.6l0.3,0.5L35.9,70l0-1.3c-0.1-0.1-0.4-0.3-0.5-0.5c-0.1-0.2-0.3-0.3-0.6-0.6c-0.3-0.2-0.6-0.4-1-0.6
	c-0.4-0.2-0.8-0.3-1.3-0.4l-0.4-0.1c-0.1,0-0.2,0-0.3,0c-0.8,0-1.5,0.2-2.2,0.5c-0.2,0.1-0.4,0.3-0.5,0.4c-0.2,0.2-0.3,0.3-0.3,0.6
	c0,0.2,0,0.5,0.1,0.7c0.1,0.2,0.3,0.4,0.7,0.7c0.4,0.2,0.9,0.5,1.7,0.8c0.8,0.3,1.7,0.7,2.9,1.1c1.5,0.6,2.8,1.2,3.8,1.8
	c1,0.6,1.9,1.3,2.5,2c1,1.1,1.5,2.4,1.5,3.9C41.9,79.7,41.8,80.5,41.6,81.4z M98.4,32C98.4,32,98.4,32,98.4,32
	c0.1-0.1,0.1-0.1,0.1-0.1c-0.1-0.2-0.3-0.4-0.6-0.5c-0.3-0.1-0.5,0-0.8,0c-0.1,0-0.1,0-0.2,0c-0.2,0-0.4,0.1-0.6,0.1
	c-0.1,0-0.1,0-0.2,0c-0.1,0-0.2,0-0.4,0c-0.2,0-0.4,0.1-0.6,0.2c-0.1,0-0.2,0.1-0.3,0.1c0,0-0.1,0-0.1,0c0,0-0.1,0-0.1,0
	c-0.2,0-0.4,0-0.5,0c-0.2,0-0.4-0.2-0.4-0.3c0,0,0-0.1,0.1-0.1c0.1,0,0.2,0,0.4,0c0.3,0,0.6,0,0.9-0.1c0.1,0,0.3-0.1,0.4-0.3l0,0
	c0.1-0.1,0.1-0.1,0.2-0.1c0.1-0.1,0.2-0.1,0.3-0.1c0.3-0.1,0.5-0.1,0.8-0.2c0.6,0,1.1,0,1.6,0.3l0,0c0.1,0,0.1,0.1,0.2,0.1
	c0,0,0.1,0,0.1-0.1c0,0,0-0.1,0-0.1c0,0,0-0.1,0-0.1c-0.3-0.4-0.8-0.6-1.3-0.5c-0.1,0-0.2,0-0.3,0.1c-0.1,0-0.2,0.1-0.4,0.1
	c-0.1,0-0.3,0-0.4,0c-0.2,0-0.4,0-0.6,0.1c-0.1,0-0.2,0.1-0.3,0.2c-0.1,0-0.1,0.1-0.2,0.1c0,0,0,0,0,0c0,0,0,0,0,0
	c-0.2,0-0.4,0-0.5,0c-0.4,0-0.5-0.1-0.6-0.2c0-0.1,0-0.1,0.1-0.1c0.1-0.1,0.3-0.1,0.5-0.1c0.2,0,0.5,0,0.7-0.1
	c0.2-0.1,0.4-0.3,0.5-0.5c0.1-0.1,0.2-0.2,0.4-0.2c0.7-0.2,1.4-0.2,2.1,0c0.2,0,0.2,0,0.2-0.1c0-0.1,0-0.1-0.1-0.2
	c-0.2-0.2-0.4-0.2-0.7-0.2c0,0,0,0,0,0c-0.2,0-0.4,0.1-0.6,0.1c0,0-0.1,0-0.1,0c0,0-0.1,0-0.1,0c-0.1,0-0.1,0-0.2,0l-0.1,0
	c-0.2,0-0.4,0-0.6,0c-0.1,0-0.3,0.1-0.4,0.2c0,0-0.1,0-0.1,0.1c0,0,0,0,0,0h0c-0.1,0-0.1,0.1-0.2,0.1c-0.1,0-0.3,0.1-0.4,0
	c0,0-0.1,0-0.1-0.1c0,0,0-0.1,0-0.1c0-0.1,0.2-0.1,0.3-0.1c0.1,0,0.3-0.1,0.5-0.3l0,0c0.1,0,0.1-0.1,0.2-0.1c0.1,0,0.1,0,0.2-0.1
	c0,0,0.1,0,0.1,0c0.7-0.3,1.3-0.3,1.9-0.2l0,0c0.1,0,0.4,0.1,0.5,0c0,0,0-0.1,0-0.2c-0.1-0.2-0.4-0.3-0.6-0.3c-0.3,0-0.5,0-0.8,0.1
	c-0.1,0-0.3,0.1-0.4,0.1c-0.2,0-0.5,0.1-0.7,0.2c0,0,0,0-0.1,0c-0.1,0-0.1,0.1-0.2,0.1l0,0l-0.1,0c0,0,0,0,0,0c0,0-0.1,0-0.1,0l0,0
	c-0.1,0-0.2,0-0.3,0c-0.1,0-0.1,0-0.1-0.1c0,0,0-0.1,0-0.1c0.1-0.1,0.2-0.2,0.4-0.2c0.1,0,0.1-0.1,0.2-0.1c0.1-0.1,0.2-0.1,0.2-0.2
	c0.1-0.2,0.2-0.3,0.4-0.4c0.7-0.3,1.4-0.4,2-0.2l0,0c0.1,0,0.1,0,0.2,0c0.1,0,0.1,0,0.2-0.1c0,0,0-0.1,0-0.1
	c-0.1-0.2-0.4-0.3-0.6-0.3c-0.2,0-0.4,0-0.6,0.1c-0.1,0-0.2,0.1-0.2,0.1c-0.1,0-0.2,0.1-0.3,0.1c-0.2,0-0.4,0.1-0.6,0.2
	c-0.2,0.1-0.3,0.2-0.4,0.3c-0.2,0-0.4,0-0.5,0c-0.1,0-0.1-0.1-0.1-0.1c0-0.1,0-0.1,0.1-0.2c0,0,0.1-0.1,0.2-0.1
	c0.1,0,0.3-0.1,0.4-0.2c0,0,0-0.1,0-0.1c0,0,0-0.1,0.1-0.1l0,0c0.1-0.2,0.4-0.3,0.6-0.3c0.5-0.2,1-0.2,1.4-0.1c0,0,0.1,0,0.1,0
	c0.1,0,0.3,0.1,0.4,0c0,0,0.1-0.1,0-0.1c0,0,0-0.1-0.1-0.1c-0.1-0.1-0.3-0.2-0.5-0.2c0,0,0,0,0,0c-0.2,0-0.4,0-0.5,0.1
	c-0.1,0-0.1,0-0.2,0c-0.1,0-0.2,0.1-0.3,0.1c-0.1,0-0.2,0-0.2,0c-0.2,0-0.3,0-0.5,0.1c-0.1,0-0.1,0.1-0.2,0.2
	c-0.1,0.1-0.2,0.2-0.2,0.2c0,0,0,0-0.1,0c0,0,0,0,0,0c0,0,0,0,0,0c-0.1,0-0.2,0-0.2,0c-0.1,0-0.1-0.1-0.2-0.1c0-0.1,0-0.1,0-0.2
	c0-0.1,0.1-0.1,0.2-0.2l0,0c0,0,0,0,0,0c0.1,0,0.2-0.1,0.2-0.1c0.1,0,0.2-0.1,0.3-0.1c0.2-0.1,0.4-0.3,0.6-0.4c0,0,0.1-0.1,0.1-0.1
	l0.1-0.1c0.4-0.3,0.8-0.6,1.3-0.5c0.2,0,0.3,0.1,0.4,0.2c0,0,0,0,0,0c0,0,0,0,0,0c0,0,0,0,0,0c0,0,0,0,0,0l0,0c0,0.1,0,0.1,0.1,0.2
	c0,0.1,0,0.1,0.1,0.2c0,0.1,0,0.2,0,0.3c0,0.1,0,0.2,0.1,0.3c0,0.1,0,0.1,0.1,0.2c0,0.1,0.1,0.1,0.1,0.2c0,0.1,0,0.1,0,0.2
	c0,0,0,0,0,0.1c-0.1,0.2,0,0.3,0,0.4c0,0,0,0,0,0.1c0,0.1,0.1,0.2,0.1,0.3c0,0.1,0,0.1-0.1,0.2c0,0-0.1,0.1-0.1,0.1
	c-0.1,0.2,0,0.4,0,0.6c0,0.2,0.1,0.3,0,0.5c0,0,0,0.1-0.1,0.1c0,0-0.1,0.1-0.1,0.1c-0.1,0.1,0,0.3,0,0.4c0,0.1,0,0.1,0,0.2
	c0,0.1,0,0.1,0,0.2c0,0.1,0,0.1-0.1,0.2c0,0.1-0.1,0.1-0.1,0.2c0,0.1,0,0.2,0,0.3c0,0.1,0,0.2,0,0.2c0,0.1,0,0.1,0,0.2
	c0,0.1-0.1,0.1-0.2,0.2c0,0-0.1,0.1-0.1,0.1c-0.1,0.1-0.1,0.2-0.1,0.3c0,0.1,0,0.2-0.1,0.3l0,0l0,0c0,0,0.2,0.2,0.5,0.3
	c0.3,0.1,1.8,0.8,2.7,1.3c1,0.6,1.1,0.9,1.1,1.1c0,0.1,0,0.4-0.1,0.8c-0.1,0-0.3,0-0.4,0c-0.1-0.1-0.3-0.1-0.4-0.2
	c-0.1,0-0.1-0.1-0.2-0.1c-0.1-0.1-0.3-0.2-0.3-0.3c0,0,0,0,0,0c0,0,0,0,0,0c-0.1-0.2-0.2-0.3-0.4-0.4c-0.2-0.1-1.3-0.9-2.3-1.1
	c-0.2,0-0.4-0.1-0.7-0.1c-0.2,0-0.4,0-0.6,0c-0.6-0.1-1.2-0.2-1.6-0.2c-0.1,0-0.2,0-0.3,0c0.1,0,0.1,0,0.2,0
	c0.4-0.1,0.8-0.2,1.2-0.1c0.1,0,0.1,0,0.2,0.1c0.1,0.1,0.3,0.1,0.4,0.1c0,0,0.1,0,0.1,0c0,0,0-0.1,0-0.1c0-0.1-0.2-0.2-0.5-0.2l0,0
	c-0.1,0-0.3-0.1-0.5-0.1c-0.2,0-0.4,0-0.6,0c-0.2,0-0.4,0.1-0.6,0.1c-0.1,0-0.3,0.1-0.4,0.1c-0.1,0-0.3,0-0.5,0.1
	c-0.1,0-0.1,0-0.2,0l0,0c-0.3,0-0.5,0-0.6-0.1c-0.2-0.1-0.4-0.2-0.5-0.2l0,0c-0.2,0-0.5-0.1-0.6-0.2c0,0,0-0.1,0-0.1
	c0.1-0.2,0.3-0.1,0.5-0.1c0,0,0.1,0,0.1,0c0.2,0,0.8,0,1.2-0.2c0,0,0,0,0.1,0c0,0,0,0,0.1,0c0.3-0.1,0.7-0.1,1.1-0.2
	c0.3-0.1,0.5-0.1,0.7-0.2c0.4-0.1,1,0,1.5,0.1l0,0C98.2,32,98.3,32,98.4,32C98.4,32,98.4,32,98.4,32z M103.5,37.7L103.5,37.7
	C103.5,37.8,103.5,37.8,103.5,37.7c0,0.1,0,0.1,0,0.1c0.1,0.1,0.2,0.1,0.3,0.2c0.1,0,0.2,0.1,0.3,0.2c0.1,0.1,0.3,0.2,0.4,0.3
	c0,0,0,0,0,0c0,0,0,0,0,0c0.1,0.1,0.2,0.2,0.2,0.4c0,0.1,0,0.1,0.1,0.2c0.1,0.2,0.2,0.5,0.3,0.7c0,0.1,0,0.1-0.1,0.1
	c-0.1,0-0.1,0-0.2,0c-0.1,0-0.3,0-0.5-0.1c0,0-0.1,0-0.1-0.1c0,0,0,0-0.1,0c-1.1-0.9-2.8-1.3-3.6-1.4c-0.6-0.1-1.8-0.4-2.4-0.5
	c-0.4-0.1-0.8-0.3-1.2-0.6c-0.1-0.1-0.3-0.2-0.4-0.3l-0.1-0.1c-0.1-0.1-0.2-0.2-0.3-0.4c0-0.1,0-0.1,0-0.2c0.5,0,1,0.1,1.4,0.2
	c1.2,0.2,3.8,0.8,5.3,1.3c0.1,0.1,0.2,0.1,0.3,0.1c0,0,0,0,0.1,0c0,0,0,0,0,0c0,0,0,0,0-0.1c0,0-0.1-0.1-0.2-0.1
	c-0.1-0.1-0.1-0.1-0.2-0.2c0,0-0.1-0.1-0.1-0.1c0,0,0,0,0,0c0,0,0,0,0,0c-0.3-0.4-0.6-0.6-1.5-1c-1-0.4-2.3-0.9-3.4-1.1
	C97,35,96.1,35,95.7,35c0,0,0,0,0,0c-0.4-0.1-0.7-0.3-1-0.5c-0.2-0.2-0.4-0.3-0.5-0.5c0,0-0.1-0.1-0.1-0.1c-0.1-0.1-0.2-0.2-0.3-0.3
	c0-0.1-0.1-0.1,0-0.2c0,0,0,0,0.1-0.1c0,0,0,0,0.1,0l0.5,0.1c0.4,0.1,0.9,0.1,1.5,0.2c0.4,0.1,0.8,0.2,1.3,0.2c1,0.2,3,0.7,4.6,1.5
	l0,0c0.2,0.1,0.4,0.2,0.6,0.3c0.2,0.1,0.4,0.2,0.6,0.4c0.9,0.6,1.1,1.1,1.3,1.6l0,0c0.1,0.1,0.1,0.2,0.2,0.4c0,0-0.1,0-0.1-0.1
	c0,0-0.1,0-0.1,0C104,37.9,103.7,37.7,103.5,37.7C103.5,37.7,103.5,37.7,103.5,37.7L103.5,37.7z M88.6,17c-0.2-0.4-0.4-0.6-0.5-0.8
	c-1-1.3-1.8-2-2.1-2.3l0,0c-0.2-0.1-0.2-0.3-0.2-0.5c0-0.4,0.2-0.9,0.6-1.4c0.4-0.7,2.1-2.8,4.6-4.3c2.4-1.5,4.6-2.1,5.3-2
	C96.8,5.7,97,6,97.1,6.2c0,0,0,0.1,0.1,0.1c0.8,1.6,1.4,2.8,2,3.5c0.7,0.9,1.8,2.2,2.3,2.8c-0.9,0.1-1.8,0.3-2.6,0.5
	c-0.4,0.1-0.9,0.2-1.4,0.4c-0.5,0.2-1.1,0.4-1.5,0.6l-0.2,0.1c-0.4,0.2-0.8,0.4-1.2,0.6c-0.4,0.2-0.8,0.4-1.1,0.6l-0.2,0.1
	c-0.4,0.2-0.8,0.5-1.2,0.8c-0.2,0.1-0.3,0.2-0.5,0.3c-0.4,0.3-0.9,0.6-1.4,0.8c-0.3,0.2-0.7,0.3-1,0.1c-0.2-0.1-0.3-0.2-0.4-0.4
	C88.7,17.1,88.7,17.1,88.6,17z M88.7,23.6c-0.4-1-0.1-2.3,0.1-3c0.2-0.5,0.6-1.3,0.9-1.8l0,0c0.1-0.1,0.1-0.2,0.3-0.3
	c0.3-0.3,0.7-0.8,1.3-1.3c0.7-0.5,1.4-1.1,2.2-1.5l0.2-0.1c0.4-0.2,0.7-0.4,1.1-0.6c0.4-0.2,0.8-0.4,1.2-0.5l0.2-0.1
	c0.4-0.2,0.9-0.4,1.4-0.5c0.5-0.2,1-0.3,1.4-0.4c0.8-0.2,1.6-0.3,2.6-0.4c0.4,0,0.7-0.1,1-0.1c0.3,0,0.6-0.1,0.8-0.1
	c0.3,0,0.4-0.1,0.5-0.1l0.1,0c0.1,0,0.2,0,0.3,0c0.2,0,0.5,0,0.7-0.1c0.5,0,0.9-0.1,1.1-0.1c0,0,0.1,0,0.1,0c0,0.1-0.1,0.2-0.3,0.3
	c0,0,0,0-0.1,0c-0.2,0.1-0.7,0.5-1.3,0.9c-0.1,0.1-0.2,0.1-0.4,0.1c-0.6,0.2-1.2,0.4-1.8,0.6c-0.4,0.1-0.8,0.2-1.3,0.3
	c-0.4,0.1-0.9,0.2-1.4,0.4c-1,0.4-2,0.9-2.9,1.4c-1,0.6-1.9,1.2-2.6,1.9c-0.9,0.8-1.5,1.4-2,2c-0.4,0.5-0.7,1-1,1.5c0,0,0,0,0,0l0,0
	c0,0,0,0.1,0,0.1c-0.1,0.2-0.2,0.4-0.2,0.5c-0.1,0.2-0.2,0.4-0.2,0.6c0,0,0,0.1,0,0.1c0,0,0.1,0,0.1-0.1c0,0,0,0,0,0
	c0,0,0.1-0.1,0.2-0.1c0.1,0,0.3,0,0.4,0.1c0.2,0.2,0.3,0.4,0.5,0.6c0.1,0.1,0.1,0.2,0.2,0.2c0.1,0.1,0.1,0.1,0.2,0.2l0,0
	c0,0,0,0,0,0c-1.1,0.5-1.9,0.6-2.1,0.5C89.8,25.2,89.1,24.7,88.7,23.6z M91.6,33.7c0.1-0.1,1-0.7,1.2-0.7c0,0,0,0,0,0
	c0.1,0,0.2,0,0.5,0.3c0.1,0.1,0.6,0.6,1.1,1.4c0.1,0.1,0.2,0.2,0.3,0.3c0.1,0.1,0.2,0.2,0.3,0.4c0,0.1-0.1,0.2-0.1,0.2l0,0
	c-0.1,0.1-0.1,0.3-0.2,0.4c-0.1,0.2-0.2,0.4-0.2,0.6l-0.5,0.1c-0.1,0-0.3,0.1-0.4,0.1c-0.4-0.5-0.7-0.9-1-1.4
	C92.1,35,91.7,34.4,91.6,33.7C91.6,33.7,91.6,33.7,91.6,33.7z M95.5,40.6c0.1,0,0.1,0.1,0.2,0.1c-1-0.1-1.7-0.2-2.2,0
	c-0.8,0.3-1,0.2-1.2,0c-0.1-0.1-0.2-0.3-0.3-0.6c-0.3-0.8-0.8-1.9-1.3-2.5c-0.4-0.5-1.1-1.1-1.3-1.3c0,0-0.1-0.1-0.1-0.1
	c0,0,0-0.1,0-0.1c0.2-0.2,1-1,2-1.7c0,0,0,0,0,0c0.1,0,0.1,0.1,0.1,0.1l0,0c0.1,0.2,0.2,0.3,0.4,0.5c0.2,0.3,0.4,0.6,0.6,1
	c0.1,0.2,0.2,0.4,0.3,0.5c0,0.1,0.1,0.2,0.1,0.2c0,0.1,0,0.1,0.1,0.2c-0.3,0.1-0.6,0.2-0.9,0.4c-0.1,0-0.3,0.1-0.3,0.3
	c0,0.1,0,0.1,0.1,0.2c0.1,0.1,0.3,0.2,0.4,0.3c0.1,0.1,0.1,0.1,0.2,0.2c0.2,0.1,0.3,0.2,0.5,0.3c0.1,0.1,0.2,0.1,0.3,0.2
	c0.3,0.2,0.6,0.4,0.9,0.6c0.1,0.1,0.2,0.1,0.3,0.2C94.8,40.1,95.1,40.4,95.5,40.6z M106.8,22.6L106.8,22.6L106.8,22.6
	c0,0,0-0.1,0-0.3c0-0.1-0.1-0.1-0.2-0.2c-0.1-0.1-0.1-0.1-0.2-0.2c-0.1-0.1,0-0.3,0-0.4c0-0.1,0-0.2,0-0.2c0,0,0-0.1-0.1-0.1
	c-0.1-0.1-0.2-0.2-0.3-0.5c-0.1-0.3,0-0.7,0.1-0.9c0,0.1-0.1,0.1-0.1,0.2c-0.1,0.2-0.2,0.4-0.3,0.5c-0.1,0.2-0.1,0.4-0.1,0.5
	c0,0,0,0.1,0,0.1c0,0,0,0,0,0c0,0,0,0,0,0c0,0,0.1,0.1,0.1,0.1c0.1,0,0.2,0,0.3,0c0.1,0,0.1,0,0.1,0c0,0,0.1,0,0.1,0
	c0,0,0,0,0.1,0.1c0,0,0,0.1,0,0.1c0,0-0.1,0-0.1,0.1c-0.1,0-0.2,0.1-0.4,0.1c-0.1,0-0.2-0.1-0.3-0.1c-0.1-0.1-0.1-0.2-0.1-0.3
	c0-0.2,0.1-0.5,0.1-0.7c0.2-0.5,0.5-0.9,0.7-1.1c0.1-0.1,0.2-0.2,0.3-0.3c0-0.1-0.1-0.2-0.2-0.3c-0.1-0.1-0.3-0.3-0.6-0.4
	c-0.2-0.1-0.3-0.2-0.4-0.3c0,0,0-0.1-0.1-0.1c0-0.1-0.1-0.1-0.1-0.2c0,0,0-0.1-0.1-0.1c0,0,0,0,0-0.1c0,0,0-0.1-0.1-0.1
	c0-0.1-0.1-0.1,0-0.2l0,0l0,0c0.1,0,0.1,0.1,0.1,0.1l0,0c0,0,0.1,0.1,0.1,0.1c0,0,0,0,0,0c0.1-0.1,0.1-0.3,0-0.5
	c-0.1-0.1-0.5-0.5-0.8-0.7c-0.2-0.1-0.3-0.3-0.4-0.4c-0.1-0.1-0.3-0.3-0.4-0.5c0,0,0,0,0,0c-0.5,0-1,0-1.5,0.1
	c-0.4,0.1-0.7,0.2-1.1,0.3l0,0l-0.5,0.2c-0.2,0.1-0.5,0.2-0.7,0.3c-0.3,0.1-0.5,0.2-0.8,0.3c0,0-0.1,0-0.1,0c0,0-0.1,0-0.1,0
	c0,0,0,0,0,0c-0.1,0-0.2,0.1-0.4,0.1c-1.2,0.4-2.1,1.1-2.1,1.1c-0.7,0.5-1.4,1-2,1.6c0,0,0,0-0.1,0.1l0,0l-0.4,0.4
	c-0.5,0.6-1.1,1.2-1.3,2.1c-0.1,0.5-0.1,1.1,0,1.6c0.1,0.6,0.4,1,0.7,1.3c0.6,0.4,1.4,0.6,2.3,0.6c0.1,0,0.1,0,0.2,0c0,0,0,0,0.1,0
	c0,0,0.1,0,0.1,0c0.3,0,0.5-0.1,0.7-0.1c0.4-0.1,0.8-0.4,1.2-0.6c0.2-0.2,0.4-0.3,0.5-0.5c0.4-0.4,0.3-1.2,0.1-1.8
	c-0.1-0.2-0.2-0.4-0.3-0.6l0,0l0,0c-0.1-0.1-0.2-0.3-0.3-0.4l-0.1,0c-0.1,0-0.2,0-0.3-0.1c-0.1,0-0.2,0-0.2,0c-0.1,0-0.3,0-0.4-0.1
	c-0.4-0.1-0.6-0.2-0.6-0.3c0,0,0,0,0,0c0,0,0.1,0,0.2,0l0,0c0.1,0,0.1,0,0.2,0c0,0,0.1,0,0.1,0c0.2,0,0.4,0.1,0.5,0.1
	c0.4,0,0.7,0,1.2-0.1c0.3-0.1,0.7-0.1,1.1-0.3c0.1,0,0.2,0,0.3-0.1c0.3-0.1,0.7-0.2,1.1-0.2c0.5-0.1,1-0.1,1.4,0
	c0.5,0.1,0.9,0.3,1.1,0.6c0.1,0.2,0.1,0.4,0,0.5c0,0.1-0.1,0.1-0.1,0.2c0,0,0,0.1-0.1,0.1c0,0,0,0.1-0.1,0.1c0,0.1-0.1,0.1-0.1,0.2
	l0,0l0,0c0,0,0-0.1,0-0.1c0,0,0-0.1,0-0.1c0-0.1,0-0.2,0.1-0.3c0,0,0-0.1,0-0.1c0,0,0,0,0,0c0,0,0-0.1-0.1-0.1c-0.1,0-0.1,0-0.1,0.1
	c0,0.1-0.1,0.2-0.1,0.2c-0.1,0.1-0.1,0.2-0.2,0.3c0,0.1,0,0.2,0,0.2c0,0,0,0.1,0.1,0.1c0,0,0.1,0.1,0.1,0.1c0,0,0,0.1,0,0.1l0,0
	c0,0.1,0,0.2,0,0.3c0,0,0,0.1,0.1,0.1c0.1,0.1,0.2,0.1,0.4,0.1c0.1,0,0.1,0,0.2-0.1c0-0.1,0-0.1,0-0.2c0-0.1,0-0.2,0-0.3l0,0
	c0,0,0-0.1,0.1-0.1c0,0,0.1,0,0.1,0l0.1,0c0,0,0,0,0.1,0c0,0,0,0,0,0c0,0,0,0,0,0c0,0,0,0.2,0,0.4c0,0.1,0,0.2,0,0.2
	c0.1,0.1,0.2,0.1,0.3,0.1c0,0,0,0,0,0c0.1,0,0.1,0,0.2,0c0,0,0,0,0.1,0c0,0,0,0,0,0c0-0.1,0-0.2,0-0.3c0,0,0,0,0-0.1
	c0-0.1,0-0.3-0.1-0.4l0,0l0,0c0,0,0.1,0,0.1,0c0.1,0,0.2,0,0.3,0.1c0.1,0,0,0.1,0,0.2c0,0,0,0,0,0.1c0,0.1,0,0.2,0,0.3
	c0,0,0,0.1,0,0.1c0,0,0,0.1,0,0.1c0,0.1,0.1,0.1,0.2,0.1c0.1,0,0.3,0,0.3-0.1c0,0,0,0,0-0.1c0-0.1,0-0.1,0-0.2c0-0.1,0-0.2-0.1-0.3
	c0,0,0,0,0,0c0,0,0,0,0,0c0.1,0,0.1-0.1,0.2-0.1s0.1,0,0.2,0.1c0.1,0.1,0,0.2,0,0.3c0,0.1,0,0.3,0,0.4c0,0.1,0.2,0.1,0.3,0
	c0,0,0,0,0,0c0,0,0.1,0,0.1,0c0,0,0,0,0-0.1c0-0.1,0-0.1,0-0.2c0-0.1,0-0.1-0.1-0.2c0,0-0.1-0.1,0-0.2c0,0,0.1-0.1,0.1-0.1
	c0,0,0.1,0,0.1,0c0,0,0.1,0,0.1,0.1c0,0,0,0.1,0,0.1c0,0.1,0,0.1,0,0.2c0,0.1,0,0.3,0,0.4c0,0,0.1,0.1,0.1,0.1c0.1,0,0.2,0,0.3,0
	c0,0,0,0,0,0c0-0.1,0-0.2,0-0.3c0-0.1,0-0.1-0.1-0.2c0-0.1-0.1-0.1-0.1-0.2c0,0,0-0.1,0.1-0.1c0,0,0,0,0.1,0c0.1,0,0.1,0,0.2,0
	c0,0,0,0,0.1,0c0,0,0.1,0,0.1,0.1c0,0.1,0,0.1,0,0.2c0,0.1,0,0.1,0,0.2c0,0.1,0,0.2,0,0.3c0,0,0,0,0,0c0.1,0.1,0.2,0.1,0.3,0.1
	c0,0,0,0,0,0c0-0.1,0-0.2-0.1-0.3c0-0.1-0.1-0.2-0.1-0.3c0-0.1-0.1-0.1,0-0.2c0,0,0.1,0,0.1,0c0,0,0,0,0.1,0c0,0,0,0,0,0
	c0,0,0.1,0.1,0.1,0.2c0,0.1,0,0.1,0,0.2c0,0.1,0,0.1,0,0.2c0,0.1,0,0.1,0,0.2c0,0,0,0.1,0,0.1c0,0,0,0.1,0.1,0.1c0,0,0.1,0,0.1,0
	C107.1,23,106.8,22.6,106.8,22.6z M103.3,19.1c-0.1,0-0.1,0-0.2,0c-0.4-0.1-0.6-0.4-0.6-0.8c0-0.5,0-1.2,0.6-1.3c0.2,0,0.4,0,0.5,0
	c0,0,0.1,0,0.1,0c0.2,0,0.5,0.1,0.7,0.3c0.1,0.1,0.2,0.2,0.2,0.4c0,0.4,0,0.7-0.1,1l0,0.1l0-0.1c0-0.1,0-0.3,0-0.4
	c0-0.2,0-0.4-0.1-0.5c0-0.1,0-0.1-0.1-0.1c0,0,0,0-0.1-0.1l0,0c0,0,0,0-0.1-0.1c0,0,0,0.1,0,0.2c0,0.2-0.1,0.4-0.1,0.6l0,0.1
	c0,0.2,0.1,0.4,0,0.6C103.8,19,103.5,19.1,103.3,19.1z M104.5,19.6c0,0-0.1,0.1-0.1,0.1c-0.2,0.1-0.3,0.2-0.4,0.3c0,0.1,0,0.2,0,0.3
	l0,0c0,0.1,0.1,0.2,0.1,0.3c0,0,0,0,0,0c0,0,0,0,0,0c0,0,0,0,0,0c0,0,0,0,0,0c-0.1-0.2-0.2-0.3-0.3-0.5c0-0.1-0.1-0.1-0.1-0.2
	c0-0.2,0.2-0.3,0.4-0.4c0.2-0.1,0.3-0.2,0.5-0.3c0.3-0.3,0.3-0.7,0.3-0.9c0,0,0,0,0-0.1c0,0,0,0,0,0c0,0,0,0,0,0c0,0,0,0,0,0
	c0,0,0,0,0,0.1C105,18.9,104.9,19.3,104.5,19.6z M101.3,41.4C101.3,41.4,101.3,41.4,101.3,41.4c0,0.2,0,0.3-0.1,0.3
	c-0.1,0.1-0.2,0.1-0.4,0.1c-0.4,0-1.5-0.3-2.7-0.8c-0.6-0.2-1.2-0.5-1.8-0.8c-0.7-0.4-1.4-0.8-1.9-1.1L92.6,38
	c-0.1-0.1-0.3-0.2-0.4-0.2c0,0,0,0,0.1,0c0.1,0,0.1-0.1,0.2-0.1c0.3-0.2,0.7-0.3,1-0.4c0.2-0.1,0.3-0.1,0.5-0.2
	c0.1,0,0.3-0.1,0.4-0.1c0,0,0,0,0.1,0c0.2,0,0.3-0.1,0.3-0.3c0.1-0.4,0.2-0.8,0.5-1.1c0.1,0.1,0.3,0.3,0.4,0.5
	c0.5,0.5,1,1.1,1.5,1.6c0.6,0.5,1.2,1,1.7,1.4c0.4,0.3,0.8,0.6,1.2,0.8c0.1,0.1,0.3,0.2,0.4,0.3c0.4,0.3,0.7,0.6,0.9,0.9
	C101.2,41.1,101.3,41.2,101.3,41.4C101.3,41.3,101.3,41.4,101.3,41.4z M106.7,25.3c0.1,0.2,0.3,0.6,0.2,0.9
	c-0.1,0.3-0.3,0.4-0.7,0.4c0,0-0.1,0-0.2,0c-0.5,0-1.5-0.1-2.7-0.1c-0.1,0-0.3,0-0.4,0c-0.5,0-0.9,0-1.3,0c-0.6,0-0.9,0-1.2,0
	c-0.4-0.1-0.9-0.6-1.1-1.4c0,0,0,0,0,0l0-0.2c0-0.2-0.1-0.4-0.1-0.7l0-0.1c0-0.2,0-0.5-0.1-0.7c0-0.2-0.1-0.3-0.2-0.4
	c-0.1-0.1-0.1-0.2-0.2-0.2c0,0,0-0.1-0.1-0.1c-0.1-0.2-0.3-0.4-0.3-0.6c0-0.1,0-0.1-0.1-0.2l0,0c0-0.1-0.1-0.2,0-0.3
	c0.1-0.1,0.3-0.2,0.4-0.2c0.1,0,0.3-0.1,0.4,0c0.1,0,0.2,0.1,0.3,0.2c0,0.1,0,0.1,0,0.2c0,0.1,0.1,0.3,0.4,0.5c0.1,0,0.2,0.1,0.4,0
	c0.1,0,0.2-0.1,0.3-0.1c0.3-0.2,0.5-0.4,0.6-0.6c0-0.1,0.1-0.1,0.1-0.2c0.2-0.1,0.4-0.2,0.6-0.2c0.2,0,0.3,0,0.4,0
	c0.1,0,0.1,0.1,0.2,0.2c0,0.1,0,0.2,0,0.3c0,0,0,0,0,0c0,0,0,0,0,0c-0.1,0.1-0.1,0.2-0.2,0.3c-0.1,0.1-0.1,0.2-0.2,0.3
	c-0.2,0.3-0.2,0.6-0.2,0.9c0,0.4,0.1,0.7,0.2,0.9c0.1,0.3,0.3,0.5,0.4,0.6c0.3,0.3,0.6,0.4,0.6,0.4c0.1,0,0.1,0,0.1-0.1
	c0-0.1,0-0.1-0.1-0.1c0,0-0.1,0-0.2-0.1c-0.1-0.1-0.3-0.2-0.4-0.3c-0.1-0.2-0.3-0.4-0.4-0.6c0,0,0,0,0,0c0.1,0,0.2,0,0.3-0.1
	c0.1,0,0.2-0.1,0.2-0.1c0.1,0,0.2,0,0.3,0.1c0.1,0.1,0,0.1,0,0.2c0,0,0,0,0,0c0,0,0,0,0,0.1c0,0,0,0.1,0.1,0.1c0.1,0,0.1,0,0.2,0
	c0,0,0,0,0,0l0-0.3c0,0,0-0.1,0-0.1c0.1-0.1,0.2,0,0.3,0c0,0,0.1,0,0.1,0c0,0,0,0.1,0,0.2c0,0.1,0,0.1,0,0.1c0,0.1,0.1,0.1,0.1,0.1
	c0.1,0,0.1,0,0.1-0.1c0-0.1,0-0.2,0-0.3c0,0,0,0,0-0.1c0.2-0.1,0.3-0.1,0.5,0c0,0,0,0.1,0,0.1c0,0.1,0,0.3,0.1,0.4c0,0,0.1,0,0.1,0
	c0.1,0,0.1-0.2,0.1-0.2c0-0.1,0-0.1,0-0.2c0,0,0,0,0-0.1c0,0,0,0,0,0c0.1-0.1,0.3-0.1,0.4,0c0,0,0.1,0,0.1,0.1c0,0,0,0,0,0.1
	c0,0,0,0.1,0,0.1c0,0,0,0,0,0.1c0,0,0,0,0,0c0,0,0,0.1,0,0.1c0,0,0,0,0.1,0c0,0,0.1,0,0.1-0.1c0-0.1,0-0.1,0-0.2c0-0.1,0-0.1,0-0.2
	c0,0,0,0,0,0c0,0,0,0,0,0c0.1,0,0.2,0,0.4,0c0,0.1,0,0.2-0.1,0.3c0,0,0,0.1,0,0.1c0,0,0,0,0,0c0.1,0,0.3,0,0.4-0.1
	c0-0.1,0-0.3,0-0.3c0.1,0,0.2,0,0.3,0c0,0,0.1,0,0.1,0c0.1,0,0.1,0.1,0,0.2s-0.1,0.1-0.1,0.2c0,0,0,0,0,0c0,0,0,0,0,0
	c0.2,0.1,0.4-0.2,0.4-0.3c0,0,0,0,0-0.1c0,0,0.1-0.1,0.1-0.1c0,0,0.1,0.1,0.1,0.1c0,0.1,0,0.2-0.1,0.2c-0.1,0.2-0.1,0.3-0.2,0.5
	c0,0.1-0.1,0.4,0,0.7C106.6,25.2,106.6,25.2,106.7,25.3z M105.4,40.3c0.1,0.2,0.1,0.4,0.1,0.5c0,0.1,0,0.2-0.1,0.3
	c-0.1,0.1-0.3,0.3-0.8,0.3c-0.1,0-1.2,0-2.8,0c-0.1,0-0.2-0.1-0.3-0.2c-0.1-0.1-0.1-0.2-0.2-0.3c0-0.1-0.1-0.1-0.1-0.2
	c-0.1-0.2-0.2-0.3-0.4-0.4c-0.1-0.1-0.2-0.2-0.3-0.2c-0.1-0.1-0.3-0.2-0.4-0.3c0,0,0-0.1,0-0.1c0.3,0.1,0.7,0.2,0.9,0.3
	c0.6,0.1,2.6,0.2,3.2,0.2l0,0c0,0,0,0,0.1,0l0,0c0.2,0,0.4,0,0.6,0C105.2,40.2,105.3,40.2,105.4,40.3z"/>
</svg>
