<?xml version="1.0" encoding="utf-8"?>
<!-- Generator: Adobe Illustrator 21.0.2, SVG Export Plug-In . SVG Version: 6.00 Build 0)  -->
<svg version="1.1" id="Layer_1" xmlns="http://www.w3.org/2000/svg" xmlns:xlink="http://www.w3.org/1999/xlink" x="0px" y="0px"
	 viewBox="0 0 194.6 99.1" style="enable-background:new 0 0 194.6 99.1;" xml:space="preserve">
<style type="text/css">
	.st0{fill:#5D5D5D;}
</style>
<g>
	<path class="st0" d="M97.8,0c-9.8,0-17.7,10-17.7,22.3c0,12.3,8,22.3,17.7,22.3c9.8,0,17.7-10,17.7-22.3C115.6,10,107.6,0,97.8,0z
		 M97.8,43.4c-9,0-16.3-9.5-16.3-21.1S88.9,1.2,97.8,1.2s16.3,9.5,16.3,21.1S106.8,43.4,97.8,43.4z"/>
	<path class="st0" d="M83.5,37.8c-1.1,1.4-3.6,2.4-6.2,2.4c-2.9,0-5.3-1.2-6.7-3.3c-2.5-3.8-0.6-7.4,0.2-8.7c-0.1,1.3,0.5,2,0.6,2
		c0,0,0.1,0,0.1,0c0,0,0.1-0.1,0.1-0.1c0.2-3,3.7-5.2,8.5-5.2c0.1,0,0.3,0,0.5,0c0.6,1.6,1.1,2.8,1.7,3.7c-0.3-1.3-0.6-2.7-0.7-4.1
		c0,0,0,0,0,0l0,0c0-0.3,0-0.6,0-0.9c-0.4,0-1.2,0-1.2,0c-1.8,0.1-3.5,0.2-4.6,0.5c-1.5,0.4-2.8,0.9-4,1.4c-0.8,0.4-1.7,0.7-2.7,1
		c-2.3,0.8-4.6,0.9-4.6,0.9c-0.1,0-0.1,0.1-0.1,0.1c0,0.1,0,0.1,0.1,0.1c0,0,1.2,0.4,2.7,0.4c0.5,0,1,0,1.5-0.1
		c-0.7,0.9-3.1,4.1-4.9,6c-2.4,2.5-6.3,5.8-11.3,5.8c0,0,0,0,0,0c-0.2,0-0.4,0-0.6,0c-2.2-0.1-3.4-0.8-3.4-1.8c0-1,1-2,1.8-2.1
		c1-0.1,2.5,0.3,2.8,1.1c0.2,0.4,0,0.9-0.6,1.5c0,0-0.1,0.1,0,0.1c0,0,0.1,0.1,0.1,0.1c0.1,0,1.6-0.2,2.2-1.5c0.1,0,0.4,0,0.8,0
		c1.3,0,3.7-0.3,5.1-2.2c0-0.1,0-0.1,0-0.2s-0.1,0-0.2,0c0,0-0.8,0.8-2.2,0.8c-0.6,0-1.2-0.1-1.8-0.3c0,0,0,0-0.1,0l-0.2,0
		c-0.5,0-0.9,0-1.4,0.2c0.2-0.3,0.4-0.7,0.2-1.3c0,0,0-0.1-0.1-0.1c0,0-0.1,0-0.1,0c0,0-0.7,0.8-2.4,0.8c-1.5,0-4.9,0.4-5.2,3.4
		c-0.5-0.1-2.1-0.5-4-0.6c-1.7-0.1-3.3,0.5-3.9,1.5c-0.3,0.5-0.3,1-0.1,1.6c0,0.1,0.1,0.1,0.2,0.1c0.1,0,0.1-0.1,0.1-0.1
		c0,0,0-0.3,0.1-0.4c0.1-0.1,0.3-0.2,0.6-0.2c0.6,0,0.8-0.3,1.1-0.7c0.2-0.3,0.4-0.6,0.8-0.7c0.2-0.1,0.6-0.1,1-0.1
		c0.7,0,3,0.1,5.1,1.6c0.8,0.6,2.1,0.9,3.8,0.9h0.4c3.1-0.1,6.5-1.1,8.8-2.8c2.9-2.1,4.9-4.6,6.7-6.8c0.2-0.3,0.5-0.6,0.7-0.9
		c-0.8,2.4-0.4,5.1,1.1,7.2c1.1,1.5,2.5,2.6,4.2,3.2c1.3,0.4,2.6,0.6,3.8,0.6c2.1,0,3.1-0.6,3.2-0.6c1-0.4,2-0.8,2.7-1.4
		c1-0.9,1.8-1.9,2.1-3.1c-0.4-0.6-0.8-1.2-1.1-1.8C84.6,35.8,84.2,36.9,83.5,37.8z M67.2,34.4c0-0.1,0-0.1-0.1-0.1
		c-0.1,0-0.1,0-0.1,0.1c0,0-1,3.5-3.2,4.3c-0.1,0-0.1,0.1-0.1,0.1c0,0.1,0.1,0.1,0.1,0.1h0c0.1,0,2-0.2,2.9-1
		c0.2,0.1,0.7,0.3,1.3,0.4c0,0,0,0,0,0c0,0,0.1,0,0.1-0.1c0,0,0-0.1,0-0.1C68.1,38.1,67.3,36.9,67.2,34.4z M79.7,28.2
		c-2,0-3.8,0.9-4.7,2.2c-1.2,1.9-2.6,2.7-2.6,2.7c0,0-0.1,0.1-0.1,0.1c0,0.1,0.1,0.1,0.1,0.1c0.8,0.1,1.3-0.1,1.7-0.4
		C74,33.5,73.9,34,74,34.5c0.1,0.7,0.6,1.3,1.3,1.8c0.7,0.5,1.5,0.7,2.4,0.7c0.9,0,1.6-0.2,2.3-0.5c0.4-0.1,0.8-0.3,1.1-0.3
		c1.2-0.1,1.3,0.7,1.3,0.7c0,0.1,0,0.1,0.1,0.1c0.1,0,0.1,0,0.1-0.1c0.3-0.4,0.3-0.8,0.2-1.2c-0.2-0.5-0.6-0.8-0.9-0.9
		c0.2-0.2,0.6-0.7,0.5-1.2c-0.1-0.3,0.5-1,1-1.4c0,0,0.1-0.1,0-0.1c0,0-0.1-0.1-0.1-0.1c-0.1,0-0.3,0-0.4,0c-1.5,0-2.3,1.1-2.6,1.5
		C80,33.4,79.6,33,79.1,33c-0.1,0-0.2,0-0.3,0c-0.6,0.2-0.8,0.8-0.7,1.1c0,0,0,0.1,0.1,0.1c0,0,0.1,0,0.1,0c0,0,0.2-0.1,0.3-0.1
		c0.1,0,0.2,0,0.2,0.1c0.1,0.1,0.2,0.3,0.2,0.6c0,0.6-0.9,1-1.8,1c-0.6,0-1.2-0.2-1.4-0.5c-0.8-1-0.6-3.4,0.6-4.8
		c0.9-1,2.1-1.5,3.5-1.5c0.9,0,1.7,0.2,2.6,0.6c0.1,0.1,0.2,0.1,0.4,0.2c-0.1-0.4-0.2-0.8-0.3-1.2c0,0-0.1,0-0.1-0.1
		C81.4,28.4,80.6,28.2,79.7,28.2z M156.3,39.1c-0.6-0.9-2-1.5-3.6-1.5c-0.1,0-0.2,0-0.3,0c-1.9,0.1-3.5,0.5-4,0.6
		c-0.2-3.1-3.7-3.4-5.2-3.4c-1.7,0-2.4-0.8-2.4-0.8c0,0-0.1-0.1-0.1,0c0,0-0.1,0-0.1,0.1c-0.1,0.6,0,1,0.2,1.3
		c-0.5-0.1-1-0.1-1.4-0.2l-0.2,0c0,0,0,0-0.1,0c-0.6,0.2-1.2,0.3-1.8,0.3c-1.4,0-2.2-0.8-2.2-0.8c0,0-0.1,0-0.2,0
		c-0.1,0-0.1,0.1,0,0.2c1.4,2,3.8,2.2,5.1,2.2c0.4,0,0.6,0,0.8,0c0.6,1.3,2.1,1.5,2.2,1.5c0,0,0.1,0,0.1-0.1c0-0.1,0-0.1,0-0.1
		c-0.6-0.5-0.8-1-0.6-1.5c0.3-0.8,1.8-1.2,2.8-1.1c0.8,0.1,1.9,1.1,1.8,2.1c0,1.1-1.2,1.7-3.4,1.8c-0.2,0-0.4,0-0.6,0
		c-5,0-8.8-3.3-11.3-5.8c-1.8-1.9-4.2-5-4.9-6c0.5,0.1,1,0.1,1.5,0.1c1.5,0,2.7-0.4,2.7-0.4c0.1,0,0.1-0.1,0.1-0.1
		c0-0.1-0.1-0.1-0.1-0.1c0,0-2.3-0.2-4.6-0.9c-1-0.3-1.8-0.7-2.7-1c-1.2-0.5-2.5-1-4-1.4c-1-0.3-2.7-0.4-4.6-0.5c0,0-0.8,0-1.2,0
		c0,0.3,0,0.5,0,0.8l0,0.1c0,0,0,0,0,0l0,0.1c0,0,0,0.1,0,0.1c-0.2,1.8-0.5,3.5-1,5.1c0.1-0.1,0.3-0.2,0.4-0.2
		c0.9-0.4,1.7-0.6,2.6-0.6c1.3,0,2.6,0.5,3.5,1.5c1.2,1.4,1.3,3.8,0.6,4.8c-0.3,0.3-0.8,0.5-1.4,0.5c-0.9,0-1.8-0.4-1.8-1
		c0-0.3,0.1-0.5,0.2-0.6c0.1-0.1,0.1-0.1,0.2-0.1c0.2,0,0.3,0.1,0.3,0.1c0,0,0.1,0,0.1,0c0,0,0.1-0.1,0.1-0.1c0-0.3-0.1-0.9-0.7-1.1
		c-0.1,0-0.2,0-0.3,0c-0.5,0-1,0.4-1.2,0.7c-0.3-0.4-1.1-1.5-2.6-1.5c-0.1,0-0.3,0-0.4,0c-0.1,0-0.1,0-0.1,0.1c0,0,0,0.1,0,0.1
		c0.4,0.3,1,1,1,1.4c-0.1,0.5,0.3,0.9,0.5,1.2c-0.3,0.1-0.7,0.4-0.9,0.9c-0.1,0.4,0,0.8,0.2,1.2c0,0,0.1,0.1,0.1,0.1
		c0.1,0,0.1-0.1,0.1-0.1c0,0,0.1-0.8,1.3-0.7c0.3,0,0.7,0.2,1.1,0.3c0.7,0.2,1.4,0.5,2.3,0.5c0.8,0,1.6-0.2,2.4-0.7
		c0.7-0.5,1.2-1.1,1.3-1.8c0.1-0.5,0-1.1-0.2-1.4c0.4,0.2,0.9,0.4,1.7,0.4c0.1,0,0.1,0,0.1-0.1c0-0.1,0-0.1-0.1-0.1
		c0,0-1.4-0.9-2.6-2.7c-0.9-1.4-2.7-2.2-4.7-2.2c-0.9,0-1.7,0.2-2.5,0.5c0,0-0.1,0-0.1,0.1c0.6-1,1.2-2.2,1.7-3.8c0.2,0,0.3,0,0.5,0
		c4.8,0,8.3,2.2,8.5,5.2c0,0.1,0,0.1,0.1,0.1c0,0,0.1,0,0.1,0c0,0,0.7-0.7,0.6-2c0.8,1.2,2.7,4.8,0.2,8.7c-1.3,2.1-3.8,3.3-6.7,3.3
		c-2.6,0-5.1-1-6.2-2.4c-0.7-0.9-1.1-2-1.1-3.2c-0.4,0.6-0.7,1.2-1.1,1.8c0.4,1.2,1.1,2.3,2.1,3.1c0.7,0.6,1.6,1.1,2.6,1.4
		c0,0,1.1,0.6,3.2,0.6c1.2,0,2.5-0.2,3.8-0.6c1.7-0.6,3.2-1.7,4.2-3.2c1.5-2.1,1.9-4.8,1.1-7.2c0.2,0.3,0.5,0.6,0.7,0.9
		c1.7,2.2,3.7,4.6,6.7,6.8c2.3,1.7,5.7,2.7,8.8,2.8h0.4c1.7,0,3-0.3,3.8-0.9c2.1-1.5,4.4-1.6,5.1-1.6c0.4,0,0.7,0,1,0.1
		c0.4,0.1,0.7,0.4,0.8,0.7c0.2,0.4,0.5,0.7,1.1,0.7c0.3,0,0.5,0,0.6,0.2c0.1,0.2,0.1,0.4,0.1,0.4c0,0.1,0,0.1,0.1,0.1
		c0.1,0,0.1,0,0.2-0.1C156.6,40.1,156.6,39.5,156.3,39.1z M132,38.7c-2.1-0.8-3.1-4.3-3.2-4.3c0-0.1-0.1-0.1-0.1-0.1
		c-0.1,0-0.1,0.1-0.1,0.1c-0.1,2.5-0.9,3.7-0.9,3.7c0,0,0,0.1,0,0.1c0,0,0.1,0.1,0.1,0.1c0,0,0,0,0,0c0.6,0,1.1-0.2,1.3-0.4
		c0.9,0.8,2.8,1,2.9,1h0c0.1,0,0.1,0,0.1-0.1C132,38.8,132,38.7,132,38.7z"/>
	<path class="st0" d="M184.8,93.5c1-2.6,3.1-4.7,5.8-5.8l0.3-0.1V58.2l-0.3-0.1c-2.6-1-4.7-3.1-5.8-5.8l-0.1-0.3h-58.5l0.6,0.9H184
		c0.8,2.8,3.2,4.8,5.9,5.9v28.1c-2.6,1.1-4.8,3.2-5.9,5.9h-30.1l0.6,0.9h30.1L184.8,93.5z M6.7,48.8c0,3.4-2.8,6.3-6.3,6.3H0l0,35.8
		h0.5c3.4,0,6.3,2.8,6.3,6.3v0.5H39l0.7-0.9h-32c-0.2-3.6-3.1-6.5-6.7-6.7V55.9c3.6-0.2,6.5-3.1,6.7-6.7h64.1l0.6-0.9H6.7V48.8z
		 M9.8,52.4c-1,2.6-3.1,4.7-5.8,5.8l-0.3,0.1v29.3l0.3,0.1c2.6,1,4.7,3.1,5.8,5.8l0.1,0.3h31.7l0.7-0.9H10.6
		c-1.1-2.6-3.2-4.8-5.9-5.9V58.9c2.6-1.1,4.8-3.2,5.9-5.9h58.7l0.6-0.9h-60L9.8,52.4z M194.2,55c-3.4,0-6.3-2.8-6.3-6.3v-0.5h-64.2
		l0.6,0.9H187c0.2,3.6,3.1,6.5,6.7,6.7v33.9c-3.6,0.2-6.5,3.1-6.7,6.7h-30.5l0.6,0.9h30.8V97c0-3.4,2.8-6.3,6.3-6.3h0.5V55H194.2z"
		/>
	<path class="st0" d="M50.5,99.1c-0.8,0-1.6-0.2-2.3-0.5L47.9,99l-1-2.5l0.1-0.1c0.9,1.3,1.9,1.9,3.3,1.9c0.6,0,2.2-0.2,2.2-1.3
		c0-0.7-0.8-0.9-1.2-1C50.5,96,49.7,96,48.9,96c-0.7,0-1.8-0.6-1.8-1.7c0-1.6,1.6-1.8,2.6-1.8c0.3,0,1.9,0.2,2.2,0.4l0.3-0.3
		l0.8,2.4l-0.1,0c-0.7-1.3-2.2-1.8-3.3-1.8c-0.5,0-1.6,0.1-1.6,1c0,0.8,1,0.9,1.4,0.9c0.8,0.1,1.5,0.1,2.3,0.2
		c0.7,0.1,1.7,0.7,1.7,1.7C53.2,98.6,51.6,99.1,50.5,99.1 M57.2,99c0,0,0-0.1,0-0.1c0.4,0,0.8-0.5,0.8-1.1l0-4
		c0-0.5-0.3-1.1-0.8-1.1c0,0,0-0.1,0-0.1l2.2,0c0-0.1,0,0.1,0,0.2c-0.4,0-0.8,0.5-0.8,1.1v3.9c0,0.5,0.3,1.1,0.8,1.1V99H57.2z
		 M69,93.3c0,1.6,0,3.3,0,4.9c0,0.2,0.5,0.6,0.7,0.6V99h-1.1l-3.9-5.3v0.5v3.5c0,0.7,0.2,1,0.8,1.1c0,0.1,0,0.2,0,0.2l-2.1,0
		c0,0,0-0.1,0-0.1c0,0,0,0,0-0.1c0.5,0,0.8-0.4,0.8-1v-3.5c0-0.9-0.1-1.4-0.9-1.5c0,0,0-0.1,0-0.1c0,0,0,0,0-0.1h1.6l3.7,4.9V97
		v-1.3c0-0.8,0-1.5,0-2.3c0-0.5-0.3-0.6-0.6-0.6c0,0-0.1,0-0.1,0c0,0,0-0.1,0-0.2h2v0.2C69.4,92.7,69,92.9,69,93.3 M78,98.9
		c-0.5,0.2-1,0.3-1.5,0.3c-1.5,0-3.1-1.1-3.1-3.3c0-2.2,1.8-3.4,3.3-3.4c0.3,0,0.6,0,0.9,0.1c0.3,0.1,0.5,0.2,0.7,0.3
		c0,0,0.1,0.1,0.1,0.1c0,0,0.4-0.3,0.4-0.4c0.4,0.7,0.8,1.5,1.1,2.2c0,0-0.1,0.1-0.1,0.1c0,0-1.7-1.7-2.9-1.7
		c-1.3,0-2.8,0.4-2.8,2.7c0,1.7,1.3,2.4,2.5,2.4c0.7,0,1.5-0.2,2-0.9c0.2-0.2,0.4-0.6,0.5-0.9h-2.3c-0.4,0-0.8,0.5-1.2,0.8
		c0,0-0.1,0-0.1-0.1c0-0.1,0.7-1.2,0.9-1.4h1.3h1.6h0.7C80,97.2,79,98.6,78,98.9 M89.7,99.1c-0.1,0-0.4-0.4-0.4-0.4
		c0,0-0.4,0.1-0.5,0.2C88.5,99,87.9,99,87.9,99l-3.8,0v-0.2h0.1c0.5,0,0.9-0.8,0.9-1.3l0-3.8c0-0.6-0.5-0.9-0.9-1l0-0.1h2.6l0,0.2
		c-0.4,0-0.9,0.3-0.9,0.9l0,4.6c0,0,0.1,0,0.1,0h1.6c0.6,0,1.2-0.2,1.7-0.5c0.4-0.2,0.7-0.6,1.1-1c0,0,0.2-0.3,0.2-0.3
		s0.1,0.1,0.1,0.1L89.7,99.1z M100.2,99c-0.1-0.1-0.2-0.3-0.4-0.4C99.4,98.8,99,99,98.5,99h-4.3v-0.2c0.7-0.2,1-0.2,1-1.4l0-3.3
		c0-0.8-0.4-1.3-1-1.4v-0.2h4.4c0.3,0,0.5,0.1,0.8,0.2c0.1,0,0.3,0.1,0.3,0.1c0,0,0.3-0.2,0.3-0.3c0.4,0.7,0.7,1.5,1,2.2l-0.1,0.1
		c-0.6-0.9-1.5-1.5-2.5-1.5h-2.6v1.9h2.4c0.4,0,0.5-0.4,0.7-0.8l1,1.9l0,0.1c-0.3-0.1-0.8-0.4-1.1-0.4h-3l0,2.3c0.8,0,1.7,0,2.5,0
		c1,0,2.1-0.7,2.7-1.8l0.1,0.1L100.2,99z M117.8,99h-2.2c0,0,0,0,0-0.1c0,0,0-0.1,0-0.1c0.4,0,0.8-0.5,0.8-1.1v-3.4
		c-0.3,0.6-1.5,3.6-1.8,4.3c0,0.1,0,0.1,0,0.2h-1.4c0.1-0.1,0.1-0.3,0-0.3c0,0-0.2-0.7-0.4-1.1c-0.5-1.1-0.9-2.2-1.3-3.3v3.3
		c0,0.5,0.3,1.1,0.8,1.1c0,0,0,0.1,0,0.1c0,0,0,0,0,0.1h-2.2c0,0,0,0,0-0.1c0,0,0-0.1,0-0.1c0.4,0,0.8-0.5,0.8-1.1v-4
		c0-0.6-0.3-1-0.8-1v-0.2c0.8,0,1.6,0,2.4,0c0,0,0,0.2,0,0.2c-0.2,0-0.6,0-0.6,0.4c0,0.4,1.8,4.5,2.1,5.1c0.3-0.6,2.1-4.8,2.1-5.1
		c0-0.3-0.4-0.4-0.6-0.4c0-0.1,0-0.2,0-0.2c0.8,0,1.6,0,2.4,0c0,0.1,0,0.1,0,0.2c-0.5,0.2-0.8,0.3-0.8,1.1l0,3.9
		c0,0.5,0.3,1.1,0.8,1.1C117.8,98.9,117.8,98.9,117.8,99C117.8,99,117.8,99,117.8,99 M129.1,99h-2.3c0,0,0-0.1,0-0.2
		c0.2-0.1,0.6,0,0.6-0.4c0-0.3-0.5-1.4-0.5-1.4s-2.1,0-3.1,0h0c0,0.1-0.6,1.2-0.6,1.4c0,0.3,0.5,0.5,0.7,0.4V99l-2.5,0v-0.2
		c0.4-0.1,0.6,0.1,0.9-0.6c0.3-0.5,2.1-4.6,2.1-4.9c0-0.5-0.3-0.5-0.6-0.6v-0.2h3v0.1c-0.2,0.1-0.6,0.1-0.6,0.5
		c0,0.2,0.1,0.5,0.2,0.8c0.4,1,0.9,2.1,1.3,3.1c0.2,0.6,0.5,1.3,1,1.6c0.2,0.1,0.3,0.1,0.5,0.2c0,0,0,0,0,0
		C129.1,98.9,129.1,98.9,129.1,99 M125.3,93.3c-0.4,1-0.9,2-1.3,3l2.5,0L125.3,93.3z M138.4,99.1c-0.1,0-0.4-0.4-0.4-0.4
		c0,0-0.4,0.1-0.5,0.2c-0.3,0.1-0.9,0.2-0.9,0.2l-3.8,0v-0.2h0.1c0.5,0,0.9-0.8,0.9-1.3l0-3.8c0-0.6-0.5-0.9-0.9-1l0-0.1h2.6l0,0.2
		c-0.4,0-0.9,0.3-0.9,0.9l0,4.6c0,0,0.1,0,0.1,0h1.6c0.6,0,1.2-0.2,1.7-0.5c0.4-0.2,0.7-0.6,1.1-1c0,0,0.2-0.3,0.2-0.3
		s0.1,0.1,0.1,0.1L138.4,99.1z M147.6,95.1c-0.8-0.9-1.8-1.9-3-1.9l0,4.9c0,0.5,0.3,0.6,0.6,0.7V99l-1.6,0c-0.1,0-0.2,0-0.4,0v-0.2
		c0.3,0,0.6-0.2,0.6-0.7l0-4.9c-1.1,0-2.1,1-3,1.9c0,0-0.2-0.1-0.2-0.2l1-2.3l0.4,0.3c0.6-0.3,1.3-0.5,1.9-0.5
		c0.7,0,1.4,0.2,2.1,0.5l0.4-0.3l1,2.3C147.8,95,147.7,95.1,147.6,95.1"/>
	<path class="st0" d="M86.3,50.5c-1-0.8-2.2-1.7-3.5-1.7l0,4.4c0,0.4,0.3,0.6,0.7,0.6V54l-2,0c-0.2,0-0.3,0-0.4,0v-0.2
		c0.4,0,0.7-0.2,0.7-0.6l0-4.4c-1.4,0-2.6,0.9-3.5,1.7c-0.1,0-0.2-0.1-0.2-0.2l1.2-2.1l0.5,0.3c0.7-0.3,1.5-0.5,2.3-0.5
		c0.8,0,1.7,0.2,2.5,0.5l0.5-0.3l1.2,2.1C86.4,50.4,86.3,50.5,86.3,50.5 M102,54l-2.7,0c0,0,0-0.1,0-0.1c0.5,0,0.9-0.5,0.9-1v-1.5
		l-4.9,0v1.5c0,0.5,0.4,1,0.9,1c0,0,0,0.1,0,0.1l-2.7,0c0,0,0,0,0-0.1c0,0,0-0.1,0-0.1c0.5,0,0.9-0.5,0.9-1l0-3.5c0-0.5-0.4-1-0.9-1
		c0,0,0-0.1,0-0.1l2.7,0c0,0,0,0.1,0,0.1c-0.5,0-0.9,0.5-0.9,1l0,1.4l4.9,0v-1.4c0-0.5-0.4-1-0.9-1c0,0,0-0.1,0-0.1l2.7,0
		c0,0,0,0,0,0.1c0,0,0,0.1,0,0.1c-0.5,0-0.9,0.5-0.9,1l0,3.5c0,0.5,0.4,1,0.9,1C102,53.9,102,54,102,54C102,54,102,54,102,54
		 M116.8,53.9c-0.2-0.1-0.3-0.2-0.4-0.3c-0.5,0.2-1,0.4-1.6,0.4l-5.2,0v-0.2c0.9-0.1,1.2-0.2,1.2-1.3l0-2.9c0-0.7-0.5-1.1-1.2-1.2
		v-0.2l5.2,0c0.3,0,0.6,0.1,0.9,0.1c0.1,0,0.3,0.1,0.4,0.1c0.1,0,0.3-0.2,0.4-0.2c0.5,0.6,0.8,1.3,1.2,1.9l-0.1,0.1
		c-0.7-0.8-1.8-1.4-3-1.4l-3.1,0l0,1.7l2.9,0c0.5,0,0.6-0.4,0.8-0.7l1.1,1.7l0,0.1c-0.4-0.1-0.9-0.4-1.3-0.4l-3.5,0l0,2c1,0,2,0,3,0
		c1.2,0,2.5-0.7,3.2-1.6l0.1,0.1L116.8,53.9z"/>
	<path class="st0" d="M39.3,74.8c0.8,0.8,1.1,1.8,1.1,2.8c0,0.5-0.1,1.1-0.3,2c-0.1,0.7-0.5,1.5-1.1,2.2c-1.4,1.7-3.5,2.6-6.6,2.6
		c-1.8,0-3.2-0.2-4.4-0.7c-0.5-0.2-1-0.5-1.5-0.7c-0.4-0.2-0.7-0.4-1-0.7l-0.1-0.1c-0.6-0.5-0.8-0.9-1-1.1c0,0,0,0,0,0l2.5-1.7
		c0.2,0.4,0.5,0.7,0.8,1.1c0.4,0.4,0.9,0.7,1.4,1c1,0.6,2,0.9,3,0.9c1.1,0,2.1-0.2,2.9-0.6l0.2-0.1c0.9-0.6,1.4-1.6,1.6-2.7
		c0.1-0.8,0-2-1.5-3.2c-0.5-0.4-1.2-0.8-1.9-1.1c-0.7-0.3-1.5-0.6-2.5-1c-2.1-0.7-3.8-1.6-4.9-2.4c-1.5-1.2-2.2-2.4-2.2-3.9
		c0.1-1.6,0.8-2.9,2.3-3.9c1.5-1.1,3.6-1.6,6.3-1.6c2.1,0,3.7,0.5,5,1.4c0.3,0.2,0.5,0.4,0.7,0.6c0.2,0.2,0.4,0.5,0.7,0.8
		c0.1,0.2,0.2,0.4,0.3,0.5l-2.2,1.3l-0.1-0.1c0,0-0.1-0.1-0.2-0.2c-0.2-0.3-0.5-0.5-0.9-0.8c-0.4-0.3-0.8-0.5-1.2-0.8
		c-0.5-0.3-1.1-0.4-1.7-0.5l-0.4-0.1c-0.2,0-0.4,0-0.6,0c-1,0-1.9,0.2-2.8,0.6l-0.2,0.1c-0.3,0.2-0.6,0.4-0.9,0.7
		c-0.4,0.4-0.6,0.9-0.7,1.4c-0.1,0.6,0,1.1,0.2,1.5c0.2,0.5,0.6,0.9,1.2,1.3c0.5,0.3,1.1,0.6,2,1c0.8,0.3,1.7,0.7,2.9,1.1
		c1.4,0.6,2.7,1.1,3.6,1.7C38.1,73.6,38.8,74.2,39.3,74.8 M64.7,82.1h-9.4v-8.4h7.4v-1.9h-7.4v-8h9.4v-1.9H52.6V84h12.1V82.1z
		 M91,61.9h-2.4l-4.3,8.6l-4.4-8.6h-2.5l5,10.2l-6.1,12h2.4l4.2-8.1l1.7-2.1l1.1,2.4l4.1,7.8h2.3L86,72L91,61.9z M108.2,84h2.7V63.7
		h6.4v-1.9h-15.4v1.9h6.4L108.2,84z M142.2,63.4c0.9,0.9,1.4,2.4,1.4,4.5v10c0,2.1-0.5,3.7-1.4,4.6c-0.6,0.6-1.5,1.1-2.5,1.4
		c-1.1,0.3-2.5,0.5-4.2,0.5c-1.7,0-3.2-0.2-4.3-0.5c-1-0.3-1.9-0.8-2.4-1.3c-0.5-0.5-0.8-1.1-1.1-1.8c-0.3-0.7-0.4-1.7-0.4-2.8v-10
		c0-1.1,0.1-2,0.4-2.8c0.3-0.7,0.6-1.3,1-1.8c0.6-0.6,1.5-1,2.5-1.3c1.1-0.3,2.6-0.5,4.3-0.5C138.7,61.5,140.9,62.2,142.2,63.4
		 M140.9,69.2c0-1.1-0.2-1.9-0.5-2.6c-0.3-0.7-0.8-1.3-1.3-1.8c-0.5-0.4-1.1-0.7-1.7-0.8c-0.6-0.1-1.1-0.2-1.7-0.2h-0.5
		c-1.7,0-3.1,0.5-4,1.5l-0.1,0.1c-0.7,0.9-1.1,2.2-1.1,3.8v7.5c0,1,0.2,1.9,0.5,2.6c0.3,0.7,0.7,1.3,1.2,1.7
		c0.5,0.4,1.1,0.8,1.8,0.9c0.6,0.1,1.1,0.2,1.6,0.2h0.5c1.8,0,3.2-0.5,4.1-1.7c0.7-0.9,1.1-2.2,1.1-3.8V69.2z M167.3,79.1L159,61.9
		h-3.2V84h2.7V66.7L167,84h3V61.9h-2.7V79.1z"/>
	<g>
		<path class="st0" d="M65.8,59.2h-15c-0.6,0-1.2,0.3-1.4,0.9c-0.2,0.4-0.2,0.8-0.1,1.1c0.1,0.3,0.3,0.5,0.5,0.6l0.2,0.2v21.7
			l-0.2,0.2c-0.6,0.4-0.8,1.2-0.4,1.8c0.3,0.5,0.8,0.9,1.4,0.9h15c0.9,0,1.6-0.6,1.6-1.5v-4.7c0-0.6-0.3-1.1-0.9-1.4
			c-0.4-0.2-0.8-0.2-1.2-0.1c-0.3,0.1-0.5,0.3-0.7,0.5l-0.2,0.2h-6.5v-3.2h4.5l0.4,0.3l0.2,0.1c0.4,0.2,0.8,0.2,1.2,0.1
			c0.7-0.2,1.1-0.7,1.1-1.4v-5.4c0-0.6-0.4-1.2-0.9-1.4v0l0,0c-0.1,0-0.2,0-0.3-0.1c-0.3,0-0.5,0-0.8,0l-0.3,0.1l-0.5,0.5h-4.5v-2.8
			h6.5l0.2,0.2c0.5,0.6,1.3,0.7,2,0.3c0.5-0.3,0.7-0.8,0.7-1.4v-4.7C67.3,60,66.8,59.2,65.8,59.2z M66.3,66.5l-1.4-1.3h-8v5h6
			l1.4-1.4v7.5l-1.4-1.2h-6v5.4h8l1.4-1.2v6.2H49.7l1.3-1.3V61.7l-1.2-1.3h16.4V66.5z"/>
		<path class="st0" d="M138.2,66c-0.4-0.3-0.8-0.5-1.2-0.6c-0.4-0.1-0.9-0.2-1.3-0.2h-0.5c-1.3,0-2.3,0.3-2.9,1
			c-0.5,0.6-0.7,1.6-0.7,2.9v7.5c0,0.8,0.1,1.5,0.3,2c0.2,0.5,0.5,0.9,0.8,1.2c0.3,0.3,0.7,0.5,1.2,0.6s0.9,0.2,1.3,0.2h0.5
			c1.4,0,2.4-0.4,2.9-1.1c0.5-0.7,0.8-1.6,0.8-2.9v-7.5c0-0.8-0.1-1.5-0.3-2C138.8,66.7,138.5,66.3,138.2,66z M138.3,76.7
			c0,1-0.2,1.7-0.5,2.2c-0.4,0.5-1.4,0.6-2.1,0.6h-0.5c-0.3,0-0.7,0-1-0.1c-0.3-0.1-0.5-0.2-0.7-0.4c-0.2-0.2-0.4-0.5-0.6-0.8
			c-0.2-0.4-0.2-0.9-0.2-1.5v-7.5c0-1,0.2-1.8,0.5-2.2c0.4-0.4,1.1-0.7,2.1-0.7h0.5c0.4,0,0.7,0,1,0.1c0.3,0.1,0.5,0.2,0.8,0.4
			c0.2,0.2,0.4,0.4,0.5,0.7c0.2,0.4,0.2,0.9,0.2,1.6V76.7z"/>
		<path class="st0" d="M172.8,83.9l-0.2-0.2V62.1l0.2-0.3c0.5-0.5,0.7-1.2,0.3-1.8c-0.3-0.5-0.8-0.8-1.4-0.8h-6.3
			c-0.7,0-1.2,0.3-1.4,0.9c-0.2,0.6-0.1,1.2,0.3,1.6l0.3,0.3v5.6l-3.6-7.5l-0.3-0.4c-0.4-0.3-0.8-0.5-1.2-0.5H154
			c-0.6,0-1.2,0.3-1.4,0.9c-0.2,0.4-0.2,0.8-0.1,1.1c0.1,0.3,0.3,0.5,0.5,0.6l0.2,0.2v21.7l-0.2,0.2c-0.6,0.4-0.8,1.1-0.5,1.8l0,0h0
			c0,0,0,0,0,0c0.3,0.5,0.8,0.9,1.4,0.9h6.2c0.7,0,1.2-0.4,1.4-1h0.1l-0.1-0.1c0,0,0,0,0,0c0.2-0.6,0.1-1.2-0.4-1.6l-0.3-0.3v-5.9
			l3.2,6.4c-0.3,0.4-0.4,0.9-0.2,1.4c0.2,0.6,0.8,1,1.4,1h6.3c0.6,0,1.2-0.4,1.4-0.9C173.5,85,173.3,84.3,172.8,83.9z M164.5,85.5
			l1.1-1.1L160,73.2v11l1.5,1.3l-8.5,0.1l1.4-1.4V61.7l-1.2-1.3l6.6,0l0.4,0.2l5.7,11.9V61.7l-1.2-1.3l8.3-0.1l-1.3,1.4v22.5
			l1.4,1.3H164.5z"/>
		<path class="st0" d="M135.5,58.9c-2,0-3.6,0.2-5,0.6c-1.4,0.4-2.6,1.1-3.6,2c-0.7,0.7-1.3,1.7-1.6,2.7c-0.4,1-0.6,2.3-0.6,3.7v10
			c0,1.5,0.2,2.7,0.6,3.7c0.4,1,0.9,2,1.7,2.7c0.9,0.9,2.1,1.5,3.5,2c1.3,0.4,3,0.6,5,0.6c1.9,0,3.6-0.2,5-0.6
			c1.4-0.4,2.6-1.1,3.6-2c1.5-1.4,2.2-3.6,2.2-6.5v-10c0-2.8-0.7-5-2.2-6.4C142.3,59.8,139.4,58.9,135.5,58.9z M145.1,77.9
			c0,2.6-0.6,4.5-1.9,5.7c-0.8,0.8-1.9,1.3-3.1,1.7c-1.3,0.4-2.8,0.6-4.6,0.6c-1.9,0-3.5-0.2-4.7-0.6c-1.2-0.4-2.3-1-3.1-1.7
			c-0.6-0.7-1.1-1.4-1.4-2.3c-0.3-0.9-0.5-2-0.5-3.4v-10c0-1.3,0.2-2.4,0.5-3.3c0.3-0.9,0.8-1.7,1.4-2.3c0.8-0.8,1.9-1.4,3.2-1.7
			c1.3-0.4,2.8-0.5,4.7-0.5c3.6,0,6.2,0.8,7.8,2.3c1.2,1.2,1.9,3.1,1.9,5.6V77.9z"/>
		<path class="st0" d="M118.3,59.2h-17.5c-1.1,0-1.6,0.7-1.6,1.5v4.7c0,0.6,0.4,1.2,0.9,1.4v0l0,0c0,0,0,0,0.1,0
			c0.6,0.3,1.3,0.1,1.7-0.4l0.2-0.2h3.4l0,17.4l-0.2,0.2c-0.5,0.4-0.6,1-0.4,1.6c0.2,0.6,0.8,1,1.5,1h6.3c0.6,0,1.2-0.4,1.5-1
			c0.3-0.7,0.1-1.4-0.5-1.7l-0.2-0.2V66.3h3.5l0.3,0.3c0.4,0.4,1,0.5,1.6,0.3c0.6-0.2,1-0.8,1-1.4v-4.7
			C119.9,60,119.3,59.2,118.3,59.2z M118.8,66.5l-1.5-1.2h-5v18.9l1.3,1.3h-8.4l1.3-1.3l0-18.9h-4.9l-1.4,1.3v-6.2l18.5,0V66.5z"/>
		<path class="st0" d="M94.8,83.5L89,72l4.7-9.7l0.6-0.6c0.4-0.5,0.5-1,0.2-1.6l0,0h0c0-0.1-0.1-0.1-0.1-0.2
			c-0.3-0.5-0.8-0.7-1.4-0.7h-6.3c-0.7,0-1.2,0.3-1.4,0.9c-0.2,0.6-0.1,1.2,0.3,1.6l0,0l-1.4,2.9l-1.5-2.9c0.2-0.2,0.4-0.5,0.5-0.8
			c0-0.2,0.1-0.7-0.3-1.2c-0.3-0.4-0.8-0.6-1.3-0.6h-6.2c-0.6,0-1.1,0.3-1.4,0.8c-0.3,0.6-0.2,1.3,0.2,1.7l0.5,0.5l4.7,9.7
			l-5.9,11.5L73.2,84c-0.5,0.4-0.7,1.1-0.4,1.8c0.3,0.5,0.8,0.9,1.4,0.9h6.2c0.6,0,1.2-0.4,1.4-0.9H82l-0.1-0.1c0,0,0,0,0,0
			c0.2-0.6,0.1-1.1-0.3-1.5l2.6-5.1l2.7,5.1c-0.4,0.4-0.6,1-0.4,1.6l-0.1,0.1c0,0,0,0.1,0,0.1l0.1,0c0,0,0,0,0,0
			c0.3,0.5,0.8,0.9,1.4,0.9h6.3c0.6,0,1.2-0.4,1.4-1c0.2-0.6,0-1.2-0.4-1.6L94.8,83.5z M86.7,85.6l1.6-1.3l-4-7.7l-0.2,0.2l-3.8,7.4
			l1.4,1.2h-8.4l1.3-1.3L80.7,72l-5-10.3l-1.2-1.4l8.2,0l-1.2,1.2l2.8,5.5l2.8-5.5l-1.3-1.2l8.4-0.1l-1.4,1.3L87.7,72l6.2,12
			l1.4,1.4L86.7,85.6z"/>
	</g>
	<path class="st0" d="M41.3,73.1c-0.7-0.8-1.6-1.6-2.8-2.2c-0.7-0.4-1.6-0.8-2.5-1.3l-1.3-0.5c-0.1,0-0.1,0-0.2-0.1
		c-1.1-0.4-2.1-0.8-2.9-1.1c-0.9-0.4-1.3-0.6-1.5-0.7c-0.2-0.1-0.3-0.2-0.3-0.2c0.1-0.1,0.2-0.2,0.3-0.3c0.5-0.2,1.1-0.3,1.7-0.3
		c0.1,0,0.1,0,0.2,0l0.4,0.1c0.4,0,0.7,0.1,1,0.3c0.3,0.2,0.6,0.3,0.8,0.5c0.2,0.2,0.8,0.6,0.8,0.6c0,0,0,0,0,0c0,0,0,0,0,0l0,0.2
		c0,0,0,0,0,0c0,0.4,0.2,0.8,0.5,1c0.7,0.5,1.7,0.2,2.3-0.2l3.5-2.1c0.6-0.3,0.8-0.8,0.9-1.1c0-0.3,0-0.7-0.3-1
		c-0.1-0.2-0.3-0.5-0.4-0.7c-0.2-0.3-0.4-0.6-0.6-1c-0.3-0.4-0.6-0.7-0.8-1c-0.3-0.3-0.6-0.6-1-0.9c-1.7-1.3-4-1.9-6.6-1.9
		c-3.2,0-5.8,0.7-7.8,2.1c-2.2,1.5-3.3,3.5-3.4,6c0,2.3,1,4.3,3.2,6c1.4,1,3.3,2,5.6,2.8c0.9,0.3,1.7,0.6,2.3,0.9
		c0.5,0.2,1,0.5,1.3,0.8c0.1,0.1,0.6,0.5,0.5,0.8c-0.1,0.4-0.2,0.7-0.4,0.9c-0.4,0.2-1,0.3-1.6,0.3c-0.5,0-1.1-0.2-1.7-0.5
		c-0.3-0.2-0.6-0.3-0.8-0.5c-0.1-0.1-0.2-0.3-0.3-0.4l0.1-0.7l0-0.1c0-0.9-0.6-1.4-1.1-1.5c-0.4-0.1-0.8,0-1.3,0.2l-4.8,3.4
		c-0.6,0.4-0.8,1-0.6,1.7c0.1,0.3,0.3,0.7,0.6,1.2c0.3,0.6,0.8,1.2,1.4,1.7c0.5,0.5,1,0.9,1.6,1.2c0.5,0.3,1.1,0.6,1.8,0.8
		c1.5,0.6,3.3,0.9,5.4,0.9c3.9,0,6.8-1.2,8.6-3.6c0.8-1.1,1.3-2.1,1.6-3.2c0.2-1,0.3-1.8,0.4-2.4C43.1,76,42.5,74.4,41.3,73.1z
		 M41.6,79.9c-0.2,0.9-0.7,1.9-1.3,2.8c-1.7,2.1-4.3,3.2-7.8,3.2c-2,0-3.6-0.3-5-0.8c-0.6-0.2-1.1-0.5-1.6-0.8
		c-0.5-0.3-1-0.6-1.4-1.1c-0.6-0.5-1-1-1.2-1.5c-0.2-0.4-0.3-0.7-0.4-0.8l-0.2-0.4l5.9-4.2l-0.3,2c0.2,0.3,0.4,0.6,0.7,0.9
		s0.6,0.5,1,0.7c0.8,0.4,1.5,0.7,2.2,0.7c0.9,0,1.7-0.2,2.3-0.5c0.5-0.4,0.8-0.9,0.9-1.6c0.1-0.6-0.2-1.2-1-1.8
		c-0.4-0.3-1-0.7-1.6-0.9c-0.6-0.3-1.4-0.6-2.4-1c-2.3-0.8-4.1-1.7-5.4-2.7c-1.9-1.5-2.8-3.2-2.8-5.1c0.1-2.1,1-3.8,2.9-5.1
		c1.8-1.2,4.2-1.9,7.1-1.9c2.4,0,4.4,0.6,5.9,1.7c0.3,0.3,0.6,0.5,0.9,0.8c0.2,0.3,0.5,0.6,0.8,0.9c0.3,0.4,0.4,0.7,0.6,1
		c0.1,0.2,0.2,0.4,0.3,0.6l0.3,0.5l-5.2,3.1l0-1.3c-0.1-0.1-0.4-0.3-0.5-0.5c-0.1-0.2-0.3-0.3-0.6-0.6c-0.3-0.2-0.6-0.4-1-0.6
		c-0.4-0.2-0.8-0.3-1.3-0.4l-0.4-0.1c-0.1,0-0.2,0-0.3,0c-0.8,0-1.5,0.2-2.2,0.5c-0.2,0.1-0.4,0.3-0.5,0.4c-0.2,0.2-0.3,0.3-0.3,0.6
		c0,0.2,0,0.5,0.1,0.7c0.1,0.2,0.3,0.4,0.7,0.7c0.4,0.2,0.9,0.5,1.7,0.8c0.8,0.3,1.7,0.7,2.9,1.1c1.5,0.6,2.8,1.2,3.8,1.8
		c1,0.6,1.9,1.3,2.5,2c1,1.1,1.5,2.4,1.5,3.9C41.9,78.2,41.8,79,41.6,79.9z"/>
	<g>
		<path class="st0" d="M98.4,30.6c-0.1,0-0.1,0-0.2,0l0,0c-0.6-0.2-1.1-0.2-1.5-0.1c-0.2,0-0.4,0.1-0.7,0.2
			c-0.5,0.1-0.8,0.2-1.1,0.2c0,0,0,0-0.1,0c0,0,0,0-0.1,0c-0.4,0.1-1,0.2-1.2,0.2c-0.1,0-0.1,0-0.1,0c-0.3,0-0.5,0-0.5,0.1
			c0,0,0,0.1,0,0.1c0.1,0.1,0.4,0.2,0.6,0.2l0,0c0.1,0,0.3,0.1,0.5,0.2c0.1,0,0.3,0,0.6,0.1l0,0c0.1,0,0.1,0,0.2,0
			c0.2,0,0.3,0,0.5-0.1c0.1,0,0.3,0,0.4-0.1c0.2,0,0.4-0.1,0.6-0.1c0.2,0,0.4,0,0.6,0c0.2,0,0.4,0,0.5,0.1l0,0
			c0.3,0.1,0.5,0.1,0.5,0.2c0,0,0,0.1,0,0.1c0,0-0.1,0-0.1,0c-0.1,0-0.3,0-0.4-0.1c-0.1,0-0.1,0-0.2-0.1c-0.4-0.1-0.8,0-1.2,0.1
			c-0.1,0-0.1,0-0.2,0c0.1,0,0.2,0,0.3,0c0.5,0.1,1,0.1,1.6,0.2c0.2,0,0.4,0,0.6,0c0.2,0,0.5,0,0.7,0.1c1,0.2,2.1,0.9,2.3,1.1
			c0.1,0.1,0.3,0.2,0.4,0.4c0,0,0,0,0,0c0,0,0,0,0,0c0.1,0.1,0.2,0.2,0.3,0.3c0.1,0,0.1,0.1,0.2,0.1c0.1,0.1,0.2,0.2,0.4,0.2
			c0.1,0,0.2,0.1,0.4,0c0.1-0.4,0.1-0.7,0.1-0.8c0-0.2-0.1-0.5-1.1-1.1c-0.9-0.5-2.3-1.1-2.7-1.3c-0.3-0.1-0.5-0.3-0.5-0.3l0,0l0,0
			c0.1-0.1,0.1-0.2,0.1-0.3c0-0.1,0-0.2,0.1-0.3C99,30,99,30,99.1,30c0.1-0.1,0.1-0.1,0.2-0.2c0-0.1,0-0.1,0-0.2c0-0.1,0-0.2,0-0.2
			c0-0.1,0-0.2,0-0.3c0-0.1,0-0.1,0.1-0.2c0-0.1,0.1-0.1,0.1-0.2c0-0.1,0-0.1,0-0.2c0-0.1,0-0.1,0-0.2c0-0.1,0-0.3,0-0.4
			c0,0,0.1-0.1,0.1-0.1c0,0,0.1-0.1,0.1-0.1c0.1-0.1,0-0.3,0-0.5c0-0.2-0.1-0.4,0-0.6c0-0.1,0.1-0.1,0.1-0.1c0-0.1,0.1-0.1,0.1-0.2
			c0-0.1,0-0.2-0.1-0.3c0,0,0,0,0-0.1c0-0.1-0.1-0.3,0-0.4c0,0,0-0.1,0-0.1c0-0.1,0.1-0.1,0-0.2c0-0.1,0-0.1-0.1-0.2
			c0-0.1-0.1-0.1-0.1-0.2c0-0.1,0-0.2-0.1-0.3c0-0.1,0-0.2,0-0.3c0-0.1,0-0.1-0.1-0.2c0-0.1,0-0.1-0.1-0.2l0,0c0,0,0,0,0,0
			c0,0,0,0,0,0c0,0,0,0,0,0c0,0,0,0,0,0c-0.1-0.1-0.3-0.2-0.4-0.2c-0.5-0.1-0.9,0.2-1.3,0.5l-0.1,0.1c0,0-0.1,0.1-0.1,0.1
			c-0.2,0.1-0.4,0.3-0.6,0.4c-0.1,0-0.2,0.1-0.3,0.1c-0.1,0-0.2,0.1-0.2,0.1c0,0,0,0,0,0l0,0C96,25,95.9,25,95.9,25.1
			c0,0.1,0,0.1,0,0.2c0,0.1,0.1,0.1,0.2,0.1c0.1,0,0.1,0,0.2,0c0,0,0,0,0,0c0,0,0,0,0,0c0,0,0,0,0.1,0c0.1-0.1,0.2-0.1,0.2-0.2
			c0.1-0.1,0.1-0.1,0.2-0.2c0.1-0.1,0.3-0.1,0.5-0.1c0.1,0,0.2,0,0.2,0c0.1,0,0.2,0,0.3-0.1c0.1,0,0.1,0,0.2,0
			c0.2,0,0.4-0.1,0.5-0.1c0,0,0,0,0,0c0.2,0,0.4,0.1,0.5,0.2c0,0,0.1,0.1,0.1,0.1c0,0.1,0,0.1,0,0.1c-0.1,0.1-0.2,0-0.4,0
			c0,0-0.1,0-0.1,0c-0.4,0-0.9,0-1.4,0.1c-0.2,0.1-0.5,0.2-0.6,0.3l0,0c0,0,0,0.1-0.1,0.1c0,0,0,0.1,0,0.1c-0.1,0.1-0.2,0.2-0.4,0.2
			c-0.1,0-0.2,0-0.2,0.1c-0.1,0-0.1,0.1-0.1,0.2c0,0.1,0,0.1,0.1,0.1c0.1,0,0.3,0,0.5,0c0.1-0.1,0.2-0.2,0.4-0.3
			c0.2-0.1,0.4-0.1,0.6-0.2c0.1,0,0.2-0.1,0.3-0.1c0.1,0,0.2-0.1,0.2-0.1c0.2-0.1,0.4-0.1,0.6-0.1c0.2,0,0.5,0.1,0.6,0.3
			c0,0,0,0.1,0,0.1c0,0.1-0.1,0.1-0.2,0.1c-0.1,0-0.1,0-0.2,0l0,0c-0.6-0.2-1.3-0.1-2,0.2c-0.2,0.1-0.3,0.2-0.4,0.4
			c0,0.1-0.1,0.2-0.2,0.2C96.1,27,96.1,27,96,27c-0.2,0.1-0.3,0.1-0.4,0.2c0,0,0,0.1,0,0.1c0,0,0.1,0.1,0.1,0.1c0.1,0,0.2,0,0.3,0
			l0,0c0,0,0.1,0,0.1,0c0,0,0,0,0,0l0.1,0l0,0c0.1,0,0.1-0.1,0.2-0.1c0,0,0,0,0.1,0c0.2-0.1,0.5-0.2,0.7-0.2c0.2,0,0.3-0.1,0.4-0.1
			c0.2-0.1,0.5-0.1,0.8-0.1c0.2,0,0.5,0.1,0.6,0.3c0,0.1,0,0.1,0,0.2c-0.1,0.1-0.4,0-0.5,0l0,0c-0.6-0.1-1.2,0-1.9,0.2
			c0,0-0.1,0-0.1,0c-0.1,0-0.1,0-0.2,0.1c-0.1,0-0.1,0.1-0.2,0.1l0,0c-0.1,0.2-0.3,0.3-0.5,0.3c-0.2,0-0.3,0.1-0.3,0.1
			c0,0,0,0.1,0,0.1c0,0,0,0.1,0.1,0.1c0.1,0.1,0.3,0,0.4,0c0,0,0.1,0,0.2-0.1h0c0,0,0,0,0,0c0,0,0.1,0,0.1-0.1
			c0.1-0.1,0.2-0.2,0.4-0.2c0.2,0,0.4,0,0.6,0l0.1,0c0.1,0,0.1,0,0.2,0c0,0,0.1,0,0.1,0c0,0,0.1,0,0.1,0c0.2-0.1,0.4-0.1,0.6-0.1
			c0,0,0,0,0,0c0.3,0,0.6,0.1,0.7,0.2c0.1,0.1,0.1,0.1,0.1,0.2c0,0-0.1,0.1-0.2,0.1c-0.7-0.1-1.4-0.1-2.1,0c-0.2,0-0.3,0.1-0.4,0.2
			c-0.1,0.2-0.3,0.3-0.5,0.5c-0.2,0.1-0.5,0.1-0.7,0.1c-0.2,0-0.4,0-0.5,0.1c0,0-0.1,0.1-0.1,0.1c0,0.1,0.2,0.2,0.6,0.2
			c0.2,0,0.4,0,0.5,0c0,0,0,0,0,0c0,0,0,0,0,0c0.1,0,0.1-0.1,0.2-0.1c0.1-0.1,0.2-0.1,0.3-0.2c0.2-0.1,0.4-0.1,0.6-0.1
			c0.1,0,0.3,0,0.4,0c0.1,0,0.2-0.1,0.4-0.1c0.1,0,0.2-0.1,0.3-0.1c0.5-0.1,1,0.1,1.3,0.5c0,0,0,0.1,0,0.1c0,0,0,0.1,0,0.1
			c0,0-0.1,0.1-0.1,0.1c-0.1,0-0.1,0-0.2-0.1l0,0c-0.5-0.2-1.1-0.3-1.6-0.3c-0.3,0-0.5,0.1-0.8,0.2c-0.1,0-0.2,0.1-0.3,0.1
			c-0.1,0-0.1,0.1-0.2,0.1l0,0c-0.1,0.1-0.3,0.2-0.4,0.3c-0.2,0.1-0.6,0.1-0.9,0.1c-0.2,0-0.3,0-0.4,0c-0.1,0-0.1,0.1-0.1,0.1
			c0,0.1,0.2,0.3,0.4,0.3c0.1,0,0.3,0,0.5,0c0,0,0.1,0,0.1,0c0,0,0.1,0,0.1,0c0.1,0,0.2-0.1,0.3-0.1c0.2-0.1,0.4-0.2,0.6-0.2
			c0.1,0,0.2,0,0.4,0c0.1,0,0.1,0,0.2,0c0.2,0,0.4,0,0.6-0.1c0.1,0,0.1,0,0.2,0c0.2,0,0.5-0.1,0.8,0c0.3,0.1,0.5,0.2,0.6,0.5
			C98.5,30.5,98.5,30.5,98.4,30.6C98.4,30.6,98.4,30.6,98.4,30.6C98.4,30.6,98.4,30.6,98.4,30.6z"/>
		<path class="st0" d="M103.5,36.3C103.5,36.3,103.5,36.3,103.5,36.3c0.2,0,0.5,0.1,0.7,0.2c0,0,0.1,0,0.1,0c0,0,0.1,0,0.1,0.1
			c-0.1-0.1-0.1-0.3-0.2-0.4l0,0c-0.2-0.5-0.4-0.9-1.3-1.6c-0.2-0.1-0.4-0.3-0.6-0.4c-0.2-0.1-0.4-0.2-0.6-0.3l0,0
			c-1.6-0.8-3.6-1.3-4.6-1.5c-0.5-0.1-0.9-0.2-1.3-0.2c-0.6-0.1-1.1-0.2-1.5-0.2L94,31.8c0,0,0,0-0.1,0c0,0-0.1,0-0.1,0.1
			c0,0,0,0.1,0,0.2c0.1,0.1,0.2,0.2,0.3,0.3c0,0,0.1,0.1,0.1,0.1c0.1,0.2,0.3,0.3,0.5,0.5c0.3,0.2,0.6,0.5,1,0.5c0,0,0,0,0,0
			c0.4,0,1.3,0.1,2.3,0.3c1.1,0.2,2.4,0.6,3.4,1.1c0.9,0.4,1.2,0.6,1.5,1c0,0,0,0,0,0c0,0,0,0,0,0c0,0,0.1,0.1,0.1,0.1
			c0.1,0.1,0.1,0.1,0.2,0.2c0.1,0,0.1,0.1,0.2,0.1c0,0,0,0,0,0.1c0,0,0,0,0,0c0,0,0,0-0.1,0c-0.1,0-0.2-0.1-0.3-0.1
			c-1.5-0.5-4.1-1.1-5.3-1.3c-0.4-0.1-0.9-0.1-1.4-0.2c0,0,0,0.1,0,0.2c0,0.2,0.2,0.3,0.3,0.4l0.1,0.1c0.2,0.1,0.3,0.3,0.4,0.3
			c0.4,0.2,0.7,0.4,1.2,0.6c0.7,0.1,1.8,0.4,2.4,0.5c0.7,0.2,2.5,0.5,3.6,1.4c0,0,0,0,0.1,0c0,0,0.1,0,0.1,0.1
			c0.2,0.1,0.4,0.1,0.5,0.1c0.1,0,0.1,0,0.2,0c0,0,0.1-0.1,0.1-0.1c-0.1-0.2-0.2-0.5-0.3-0.7c0-0.1-0.1-0.1-0.1-0.2
			c-0.1-0.2-0.1-0.3-0.2-0.4c0,0,0,0,0,0c0,0,0,0,0,0c-0.1-0.1-0.2-0.2-0.4-0.3c-0.1-0.1-0.2-0.1-0.3-0.2c-0.1-0.1-0.2-0.1-0.3-0.2
			C103.6,36.4,103.5,36.4,103.5,36.3C103.5,36.3,103.5,36.3,103.5,36.3L103.5,36.3L103.5,36.3z"/>
		<path class="st0" d="M88.8,15.7c0.1,0.1,0.2,0.3,0.4,0.4c0.3,0.2,0.7,0.1,1-0.1c0.5-0.2,0.9-0.5,1.4-0.8c0.2-0.1,0.3-0.2,0.5-0.3
			c0.4-0.3,0.8-0.6,1.2-0.8l0.2-0.1c0.4-0.2,0.7-0.4,1.1-0.6c0.4-0.2,0.8-0.4,1.2-0.6l0.2-0.1c0.4-0.2,0.9-0.4,1.5-0.6
			c0.5-0.2,1-0.3,1.4-0.4c0.8-0.2,1.6-0.3,2.6-0.5c-0.5-0.6-1.6-1.9-2.3-2.8c-0.5-0.7-1.2-1.9-2-3.5c0-0.1-0.1-0.1-0.1-0.1
			c-0.1-0.2-0.3-0.4-0.9-0.5c-0.7-0.1-2.8,0.5-5.3,2c-2.5,1.6-4.2,3.6-4.6,4.3c-0.3,0.6-0.5,1.1-0.6,1.4c0,0.1,0.1,0.3,0.2,0.5l0,0
			c0.3,0.3,1.1,1,2.1,2.3c0.1,0.2,0.3,0.4,0.5,0.8C88.7,15.6,88.7,15.6,88.8,15.7z"/>
		<path class="st0" d="M90.1,23.7c0.3,0,1.1,0,2.1-0.5c0,0,0,0,0,0l0,0c-0.1-0.1-0.1-0.1-0.2-0.2c-0.1-0.1-0.1-0.2-0.2-0.2
			c-0.1-0.2-0.3-0.4-0.5-0.6C91.3,22,91.2,22,91,22c-0.1,0-0.1,0-0.2,0.1c0,0,0,0,0,0c0,0-0.1,0.1-0.1,0.1c0,0,0,0,0-0.1
			c0-0.2,0.1-0.4,0.2-0.6c0.1-0.2,0.1-0.4,0.2-0.5c0,0,0,0,0-0.1l0,0c0,0,0,0,0,0c0.3-0.6,0.6-1.1,1-1.5c0.5-0.6,1.1-1.2,2-2
			c0.7-0.7,1.6-1.3,2.6-1.9c0.9-0.6,1.9-1,2.9-1.4c0.5-0.2,1-0.4,1.4-0.4c0.5-0.1,0.9-0.2,1.3-0.3c0.6-0.2,1.2-0.3,1.8-0.6
			c0.1,0,0.2-0.1,0.4-0.1c0.6-0.4,1.1-0.8,1.3-0.9c0,0,0,0,0.1,0c0.2-0.1,0.3-0.3,0.3-0.3c0,0,0,0-0.1,0c-0.2,0-0.6,0-1.1,0.1
			c-0.2,0-0.5,0-0.7,0.1c-0.1,0-0.2,0-0.3,0l-0.1,0c-0.1,0-0.3,0-0.5,0.1c-0.2,0-0.5,0.1-0.8,0.1c-0.3,0-0.6,0.1-1,0.1
			c-0.9,0.1-1.8,0.2-2.6,0.4c-0.4,0.1-0.9,0.2-1.4,0.4c-0.5,0.2-1,0.4-1.4,0.5L95.9,13c-0.4,0.2-0.8,0.3-1.2,0.5
			c-0.4,0.2-0.8,0.4-1.1,0.6l-0.2,0.1c-0.8,0.4-1.5,0.9-2.2,1.5c-0.6,0.5-1.1,1-1.3,1.3c-0.1,0.1-0.2,0.3-0.3,0.3l0,0
			c-0.3,0.4-0.8,1.3-0.9,1.8c-0.2,0.7-0.5,2-0.1,3C89.1,23.2,89.9,23.7,90.1,23.7z"/>
		<path class="st0" d="M91.6,32.3c0.2,0.7,0.5,1.2,0.9,1.8c0.3,0.5,0.7,0.9,1,1.4c0.1,0,0.2-0.1,0.4-0.1l0.5-0.1
			c0.1-0.2,0.1-0.4,0.2-0.6c0.1-0.1,0.1-0.3,0.2-0.4l0,0c0-0.1,0.1-0.2,0.1-0.2c-0.1-0.1-0.2-0.2-0.3-0.4c-0.1-0.1-0.2-0.2-0.3-0.3
			c-0.5-0.7-1-1.2-1.1-1.4c-0.3-0.3-0.5-0.3-0.5-0.3c0,0,0,0,0,0C92.7,31.6,91.7,32.1,91.6,32.3C91.6,32.2,91.6,32.3,91.6,32.3z"/>
		<path class="st0" d="M94.5,38.4c-0.1-0.1-0.2-0.1-0.3-0.2c-0.3-0.2-0.6-0.4-0.9-0.6c-0.1-0.1-0.2-0.1-0.3-0.2
			c-0.2-0.1-0.4-0.2-0.5-0.3c-0.1-0.1-0.1-0.1-0.2-0.2c-0.1-0.1-0.3-0.2-0.4-0.3c-0.1-0.1-0.1-0.1-0.1-0.2c0-0.2,0.3-0.3,0.3-0.3
			c0.3-0.1,0.6-0.3,0.9-0.4c0-0.1-0.1-0.1-0.1-0.2c0-0.1,0-0.2-0.1-0.2c-0.1-0.2-0.2-0.4-0.3-0.5c-0.2-0.4-0.4-0.7-0.6-1
			c-0.1-0.2-0.2-0.3-0.4-0.5l0,0c0-0.1-0.1-0.1-0.1-0.1c0,0,0,0,0,0c-1,0.6-1.8,1.4-2,1.7c0,0,0,0.1,0,0.1c0,0,0,0.1,0.1,0.1
			c0.3,0.2,0.9,0.8,1.3,1.3c0.5,0.6,1,1.7,1.3,2.5c0.1,0.3,0.2,0.6,0.3,0.6c0.2,0.3,0.4,0.3,1.2,0c0.5-0.2,1.2-0.2,2.2,0
			c-0.1,0-0.1-0.1-0.2-0.1C95.1,38.9,94.8,38.6,94.5,38.4z"/>
		<path class="st0" d="M106.8,21.1L106.8,21.1L106.8,21.1c0,0,0-0.1,0-0.3c0-0.1-0.1-0.1-0.2-0.2c-0.1-0.1-0.1-0.1-0.2-0.2
			c-0.1-0.1,0-0.3,0-0.4c0-0.1,0-0.2,0-0.2c0,0,0-0.1-0.1-0.1c-0.1-0.1-0.2-0.2-0.3-0.5c-0.1-0.3,0-0.7,0.1-0.9
			c0,0.1-0.1,0.1-0.1,0.2c-0.1,0.2-0.2,0.4-0.3,0.5c-0.1,0.2-0.1,0.4-0.1,0.5c0,0,0,0.1,0,0.1c0,0,0,0,0,0c0,0,0,0,0,0
			c0,0,0.1,0.1,0.1,0.1c0.1,0,0.2,0,0.3,0c0.1,0,0.1,0,0.1,0c0,0,0.1,0,0.1,0c0,0,0,0,0.1,0.1c0,0,0,0.1,0,0.1c0,0-0.1,0-0.1,0.1
			c-0.1,0-0.2,0.1-0.4,0.1c-0.1,0-0.2-0.1-0.3-0.1c-0.1-0.1-0.1-0.2-0.1-0.3c0-0.2,0.1-0.5,0.1-0.7c0.2-0.5,0.5-0.9,0.7-1.1
			c0.1-0.1,0.2-0.2,0.3-0.3c0-0.1-0.1-0.2-0.2-0.3c-0.1-0.1-0.3-0.3-0.6-0.4c-0.2-0.1-0.3-0.2-0.4-0.3c0,0,0-0.1-0.1-0.1
			c0-0.1-0.1-0.1-0.1-0.2c0,0,0-0.1-0.1-0.1c0,0,0,0,0-0.1c0,0,0-0.1-0.1-0.1c0-0.1-0.1-0.1,0-0.2l0,0l0,0c0.1,0,0.1,0.1,0.1,0.1
			l0,0c0,0,0.1,0.1,0.1,0.1c0,0,0,0,0,0c0.1-0.1,0.1-0.3,0-0.5c-0.1-0.1-0.5-0.5-0.8-0.7c-0.2-0.1-0.3-0.3-0.4-0.4
			c-0.1-0.1-0.3-0.3-0.4-0.5c0,0,0,0,0,0c-0.5,0-1,0-1.5,0.1c-0.4,0.1-0.7,0.2-1.1,0.3l0,0l-0.5,0.2c-0.2,0.1-0.5,0.2-0.7,0.3
			c-0.3,0.1-0.5,0.2-0.8,0.3c0,0-0.1,0-0.1,0c0,0-0.1,0-0.1,0c0,0,0,0,0,0c-0.1,0-0.2,0.1-0.4,0.1c-1.2,0.4-2.1,1.1-2.1,1.1
			c-0.7,0.5-1.4,1-2,1.6c0,0,0,0-0.1,0.1l0,0l-0.4,0.4c-0.5,0.6-1.1,1.2-1.3,2.1c-0.1,0.5-0.1,1.1,0,1.6c0.1,0.6,0.4,1,0.7,1.3
			c0.6,0.4,1.4,0.6,2.3,0.6c0.1,0,0.1,0,0.2,0c0,0,0,0,0.1,0c0,0,0.1,0,0.1,0c0.3,0,0.5-0.1,0.7-0.1c0.4-0.1,0.8-0.4,1.2-0.6
			c0.2-0.2,0.4-0.3,0.5-0.5c0.4-0.4,0.3-1.2,0.1-1.8c-0.1-0.2-0.2-0.4-0.3-0.6l0,0l0,0c-0.1-0.1-0.2-0.3-0.3-0.4l-0.1,0
			c-0.1,0-0.2,0-0.3-0.1c-0.1,0-0.2,0-0.2,0c-0.1,0-0.3,0-0.4-0.1c-0.4-0.1-0.6-0.2-0.6-0.3c0,0,0,0,0,0c0,0,0.1,0,0.2,0l0,0
			c0.1,0,0.1,0,0.2,0c0,0,0.1,0,0.1,0c0.2,0,0.4,0.1,0.5,0.1c0.4,0,0.7,0,1.2-0.1c0.3-0.1,0.7-0.1,1.1-0.3c0.1,0,0.2,0,0.3-0.1
			c0.3-0.1,0.7-0.2,1.1-0.2c0.5-0.1,1-0.1,1.4,0c0.5,0.1,0.9,0.3,1.1,0.6c0.1,0.2,0.1,0.4,0,0.5c0,0.1-0.1,0.1-0.1,0.2
			c0,0,0,0.1-0.1,0.1c0,0,0,0.1-0.1,0.1c0,0.1-0.1,0.1-0.1,0.2l0,0l0,0c0,0,0-0.1,0-0.1c0,0,0-0.1,0-0.1c0-0.1,0-0.2,0.1-0.3
			c0,0,0-0.1,0-0.1c0,0,0,0,0,0c0,0,0-0.1-0.1-0.1c-0.1,0-0.1,0-0.1,0.1c0,0.1-0.1,0.2-0.1,0.2c-0.1,0.1-0.1,0.2-0.2,0.3
			c0,0.1,0,0.2,0,0.2c0,0,0,0.1,0.1,0.1c0,0,0.1,0.1,0.1,0.1c0,0,0,0.1,0,0.1l0,0c0,0.1,0,0.2,0,0.3c0,0,0,0.1,0.1,0.1
			c0.1,0.1,0.2,0.1,0.4,0.1c0.1,0,0.1,0,0.2-0.1c0-0.1,0-0.1,0-0.2c0-0.1,0-0.2,0-0.3l0,0c0,0,0-0.1,0.1-0.1c0,0,0.1,0,0.1,0l0.1,0
			c0,0,0,0,0.1,0c0,0,0,0,0,0c0,0,0,0,0,0c0,0,0,0.2,0,0.4c0,0.1,0,0.2,0,0.2c0.1,0.1,0.2,0.1,0.3,0.1c0,0,0,0,0,0
			c0.1,0,0.1,0,0.2,0c0,0,0,0,0.1,0c0,0,0,0,0,0c0-0.1,0-0.2,0-0.3c0,0,0,0,0-0.1c0-0.1,0-0.3-0.1-0.4l0,0l0,0c0,0,0.1,0,0.1,0
			c0.1,0,0.2,0,0.3,0.1c0.1,0,0,0.1,0,0.2c0,0,0,0,0,0.1c0,0.1,0,0.2,0,0.3c0,0,0,0.1,0,0.1c0,0,0,0.1,0,0.1c0,0.1,0.1,0.1,0.2,0.1
			c0.1,0,0.3,0,0.3-0.1c0,0,0,0,0-0.1c0-0.1,0-0.1,0-0.2c0-0.1,0-0.2-0.1-0.3c0,0,0,0,0,0c0,0,0,0,0,0c0.1,0,0.1-0.1,0.2-0.1
			s0.1,0,0.2,0.1c0.1,0.1,0,0.2,0,0.3c0,0.1,0,0.3,0,0.4c0,0.1,0.2,0.1,0.3,0c0,0,0,0,0,0c0,0,0.1,0,0.1,0c0,0,0,0,0-0.1
			c0-0.1,0-0.1,0-0.2c0-0.1,0-0.1-0.1-0.2c0,0-0.1-0.1,0-0.2c0,0,0.1-0.1,0.1-0.1c0,0,0.1,0,0.1,0c0,0,0.1,0,0.1,0.1
			c0,0,0,0.1,0,0.1c0,0.1,0,0.1,0,0.2c0,0.1,0,0.3,0,0.4c0,0,0.1,0.1,0.1,0.1c0.1,0,0.2,0,0.3,0c0,0,0,0,0,0c0-0.1,0-0.2,0-0.3
			c0-0.1,0-0.1-0.1-0.2c0-0.1-0.1-0.1-0.1-0.2c0,0,0-0.1,0.1-0.1c0,0,0,0,0.1,0c0.1,0,0.1,0,0.2,0c0,0,0,0,0.1,0c0,0,0.1,0,0.1,0.1
			c0,0.1,0,0.1,0,0.2c0,0.1,0,0.1,0,0.2c0,0.1,0,0.2,0,0.3c0,0,0,0,0,0c0.1,0.1,0.2,0.1,0.3,0.1c0,0,0,0,0,0c0-0.1,0-0.2-0.1-0.3
			c0-0.1-0.1-0.2-0.1-0.3c0-0.1-0.1-0.1,0-0.2c0,0,0.1,0,0.1,0c0,0,0,0,0.1,0c0,0,0,0,0,0c0,0,0.1,0.1,0.1,0.2c0,0.1,0,0.1,0,0.2
			c0,0.1,0,0.1,0,0.2c0,0.1,0,0.1,0,0.2c0,0,0,0.1,0,0.1c0,0,0,0.1,0.1,0.1c0,0,0.1,0,0.1,0C107.1,21.5,106.8,21.1,106.8,21.1z
			 M103.3,17.7c-0.1,0-0.1,0-0.2,0c-0.4-0.1-0.6-0.4-0.6-0.8c0-0.5,0-1.2,0.6-1.3c0.2,0,0.4,0,0.5,0c0,0,0.1,0,0.1,0
			c0.2,0,0.5,0.1,0.7,0.3c0.1,0.1,0.2,0.2,0.2,0.4c0,0.4,0,0.7-0.1,1l0,0.1l0-0.1c0-0.1,0-0.3,0-0.4c0-0.2,0-0.4-0.1-0.5
			c0-0.1,0-0.1-0.1-0.1c0,0,0,0-0.1-0.1l0,0c0,0,0,0-0.1-0.1c0,0,0,0.1,0,0.2c0,0.2-0.1,0.4-0.1,0.6l0,0.1c0,0.2,0.1,0.4,0,0.6
			C103.8,17.5,103.6,17.7,103.3,17.7z M104.5,18.1c0,0-0.1,0.1-0.1,0.1c-0.2,0.1-0.3,0.2-0.4,0.3c0,0.1,0,0.2,0,0.3l0,0
			c0,0.1,0.1,0.2,0.1,0.3c0,0,0,0,0,0c0,0,0,0,0,0c0,0,0,0,0,0c0,0,0,0,0,0c-0.1-0.2-0.2-0.3-0.3-0.5c0-0.1-0.1-0.1-0.1-0.2
			c0-0.2,0.2-0.3,0.4-0.4c0.2-0.1,0.3-0.2,0.5-0.3c0.3-0.3,0.3-0.7,0.3-0.9c0,0,0,0,0-0.1c0,0,0,0,0,0c0,0,0,0,0,0c0,0,0,0,0,0
			c0,0,0,0,0,0.1C105,17.4,104.9,17.9,104.5,18.1z"/>
		<path class="st0" d="M101.3,39.8c0-0.1,0-0.2-0.1-0.3c-0.2-0.3-0.5-0.6-0.9-0.9c-0.1-0.1-0.2-0.2-0.4-0.3
			c-0.4-0.2-0.8-0.5-1.2-0.8c-0.5-0.4-1.1-0.8-1.7-1.4c-0.5-0.5-1-1-1.5-1.6c-0.2-0.2-0.3-0.4-0.4-0.5c-0.3,0.3-0.4,0.7-0.5,1.1
			c0,0.2-0.2,0.2-0.3,0.3c0,0,0,0-0.1,0c-0.1,0-0.3,0.1-0.4,0.1c-0.2,0-0.3,0.1-0.5,0.2c-0.3,0.1-0.6,0.2-1,0.4
			c-0.1,0-0.2,0.1-0.2,0.1c0,0-0.1,0-0.1,0c0.1,0.1,0.3,0.2,0.4,0.2l1.9,1.1c0.5,0.3,1.2,0.7,1.9,1.1c0.6,0.3,1.2,0.6,1.8,0.8
			c1.2,0.5,2.3,0.7,2.7,0.8c0.2,0,0.3,0,0.4-0.1c0.1-0.1,0.1-0.2,0.1-0.3C101.3,39.9,101.3,39.9,101.3,39.8
			C101.3,39.9,101.3,39.9,101.3,39.8z"/>
		<path class="st0" d="M106.6,23.6c-0.1-0.2-0.1-0.6,0-0.7c0.1-0.1,0.2-0.3,0.2-0.5c0-0.1,0.1-0.2,0.1-0.2c0,0-0.1-0.1-0.1-0.1
			c0,0-0.1,0-0.1,0.1c0,0,0,0,0,0.1c0,0.2-0.2,0.4-0.4,0.3c0,0,0,0,0,0c0,0,0,0,0,0c0-0.1,0.1-0.1,0.1-0.2s0-0.1,0-0.2
			c0,0,0,0-0.1,0c-0.1,0-0.2-0.1-0.3,0c-0.1,0.1,0,0.2,0,0.3c0,0.2-0.2,0.2-0.4,0.1c0,0,0,0,0,0c0,0,0-0.1,0-0.1
			c0-0.1,0.1-0.2,0.1-0.3c-0.1,0-0.2,0-0.4,0c0,0,0,0,0,0c0,0,0,0,0,0c0,0.1,0,0.1,0,0.2c0,0.1,0,0.1,0,0.2c0,0-0.1,0.1-0.1,0.1
			c0,0-0.1,0-0.1,0c0,0,0-0.1,0-0.1c0,0,0,0,0,0c0,0,0,0,0-0.1c0,0,0-0.1,0-0.1c0,0,0,0,0-0.1c0,0,0,0-0.1-0.1
			c-0.2-0.1-0.3-0.1-0.4,0c0,0,0,0,0,0c0,0,0,0,0,0.1c0,0.1,0,0.1,0,0.2c0,0,0,0.2-0.1,0.2c0,0-0.1,0-0.1,0
			c-0.1-0.1-0.1-0.2-0.1-0.4c0,0,0-0.1,0-0.1c-0.1-0.1-0.3-0.1-0.5,0c0,0,0,0,0,0.1c0,0.1,0,0.2,0,0.3c0,0.1-0.1,0.1-0.1,0.1
			c-0.1,0-0.1,0-0.1-0.1c0,0,0-0.1,0-0.1c0-0.1,0-0.2,0-0.2c0,0-0.1,0-0.1,0c-0.1,0-0.2,0-0.3,0c0,0,0,0,0,0.1l0,0.3c0,0,0,0,0,0
			c-0.1,0-0.1,0-0.2,0c0,0,0,0-0.1-0.1c0,0,0-0.1,0-0.1c0,0,0,0,0,0c0.1-0.1,0.1-0.2,0-0.2c-0.1-0.1-0.2-0.1-0.3-0.1
			c0,0-0.1,0-0.2,0.1c-0.1,0.1-0.2,0.1-0.3,0.1c0,0,0,0,0,0c0.1,0.2,0.2,0.4,0.4,0.6c0.1,0.1,0.2,0.2,0.4,0.3
			C102.9,23,103,23,103,23c0.1,0,0.1,0.1,0.1,0.1c0,0-0.1,0.1-0.1,0.1c0,0-0.3-0.1-0.6-0.4c-0.2-0.2-0.3-0.4-0.4-0.6
			c-0.1-0.2-0.2-0.5-0.2-0.9c0-0.3,0.1-0.6,0.2-0.9c0.1-0.1,0.1-0.2,0.2-0.3c0.1-0.1,0.1-0.2,0.2-0.3c0,0,0,0,0,0c0,0,0,0,0,0
			c0.1-0.1,0.1-0.2,0-0.3c0-0.1-0.1-0.1-0.2-0.2c-0.1-0.1-0.3-0.1-0.4,0c-0.2,0-0.4,0.1-0.6,0.2c0,0.1-0.1,0.1-0.1,0.2
			c-0.2,0.2-0.3,0.5-0.6,0.6c-0.1,0.1-0.2,0.1-0.3,0.1c-0.1,0-0.2,0-0.4,0c-0.2-0.1-0.3-0.3-0.4-0.5c0-0.1,0-0.1,0-0.2
			c0-0.1-0.2-0.2-0.3-0.2c-0.1,0-0.3,0-0.4,0c-0.1,0-0.3,0.1-0.4,0.2c-0.1,0.1,0,0.2,0,0.3l0,0c0,0,0,0.1,0.1,0.2
			c0.1,0.2,0.2,0.4,0.3,0.6c0,0,0,0.1,0.1,0.1c0.1,0.1,0.1,0.2,0.2,0.2c0.1,0.1,0.1,0.3,0.2,0.4c0.1,0.3,0.1,0.5,0.1,0.7l0,0.1
			c0,0.3,0.1,0.5,0.1,0.7l0,0.2c0,0,0,0,0,0c0.2,0.8,0.8,1.3,1.1,1.4c0.2,0.1,0.6,0.1,1.2,0c0.3,0,0.8,0,1.3,0c0.1,0,0.3,0,0.4,0
			c1.1,0,2.2,0.1,2.7,0.1c0.1,0,0.1,0,0.2,0c0.4,0,0.6-0.1,0.7-0.4c0.1-0.3-0.1-0.6-0.2-0.9C106.6,23.7,106.6,23.7,106.6,23.6z"/>
		<path class="st0" d="M105.1,38.7c-0.2,0-0.4,0-0.6,0l0,0c0,0,0,0-0.1,0l0,0c-0.6,0-2.6-0.1-3.2-0.2c-0.3,0-0.6-0.2-0.9-0.3
			c0,0,0,0.1,0,0.1c0.1,0.1,0.2,0.2,0.4,0.3c0.1,0.1,0.2,0.1,0.3,0.2c0.1,0.1,0.3,0.3,0.4,0.4c0,0.1,0.1,0.1,0.1,0.2
			c0,0.1,0.1,0.2,0.2,0.3c0.1,0.1,0.2,0.2,0.3,0.2c1.5,0.1,2.6,0,2.8,0c0.5,0,0.7-0.2,0.8-0.3c0.1-0.1,0.1-0.2,0.1-0.3
			c0-0.1-0.1-0.2-0.1-0.5C105.3,38.8,105.2,38.7,105.1,38.7z"/>
	</g>
</g>
</svg>
